<?xml version="1.0" encoding="utf-8"?>
<!-- Generator: Adobe Illustrator 22.1.0, SVG Export Plug-In . SVG Version: 6.00 Build 0)  -->
<svg version="1.1" id="Layer_1" xmlns="http://www.w3.org/2000/svg" xmlns:xlink="http://www.w3.org/1999/xlink" x="0px" y="0px"
	 viewBox="0 0 555.1 471" style="enable-background:new 0 0 555.1 471;" xml:space="preserve">
<style type="text/css">
	.st0{fill:#21395C;}
	.st1{fill:#FFFFFF;}
	.st2{fill:#674286;}
	.st3{fill:none;}
	.st4{fill:#62C0C1;}
	.st5{fill:#FFFFFF;stroke:#FFFFFF;stroke-width:0.6436;stroke-linecap:round;stroke-linejoin:round;stroke-miterlimit:10;}
	.st6{fill:none;stroke:#000000;stroke-width:2.5742;stroke-linejoin:round;stroke-miterlimit:10;}
	.st7{fill:#FFFFFF;stroke:#674186;stroke-width:0.6436;stroke-linecap:round;stroke-linejoin:round;stroke-miterlimit:10;}
	.st8{fill:#64C0C1;}
	.st9{fill:#FFFFFF;stroke:#674386;stroke-width:0.7906;stroke-linejoin:round;stroke-miterlimit:10;}
	.st10{fill:#FFFFFF;stroke:#674386;stroke-width:0.646;stroke-linecap:round;stroke-linejoin:round;stroke-miterlimit:10;}
	.st11{fill:#FFFFFF;stroke:#684186;stroke-width:0.6063;stroke-linecap:round;stroke-linejoin:round;stroke-miterlimit:10;}
	.st12{fill:none;stroke:#684186;stroke-width:0.6063;stroke-linecap:round;stroke-linejoin:round;stroke-miterlimit:10;}
	.st13{fill:none;stroke:#674186;stroke-width:0.6063;stroke-linecap:round;stroke-linejoin:round;stroke-miterlimit:10;}
	.st14{fill:#674186;}
	.st15{fill:#66C0C0;}
	.st16{fill:#1B2B49;}
</style>
<rect x="0.2" y="0.3" class="st0" width="554.7" height="470.5"/>
<g>
	<g>
		<circle class="st1" cx="197.4" cy="300.4" r="22.3"/>
		<path class="st2" d="M197.4,278.5c12.1,0,21.9,9.8,21.9,21.9s-9.8,21.9-21.9,21.9s-21.9-9.8-21.9-21.9S185.3,278.5,197.4,278.5
			 M197.4,277.9c-12.4,0-22.6,10.1-22.6,22.6c0,12.4,10.1,22.6,22.6,22.6s22.6-10.1,22.6-22.6C220,288,209.9,277.9,197.4,277.9
			L197.4,277.9z"/>
	</g>
	<path class="st3" d="M197.4,278.5c-12.1,0-21.9,9.8-21.9,21.9c0,11.4,8.6,20.7,19.7,21.8V307h4.5v15.3
		c11.1-1.1,19.7-10.5,19.7-21.8C219.4,288.3,209.5,278.5,197.4,278.5z"/>
	<path class="st4" d="M206.4,297.8h-2V292c0-0.9-0.7-1.6-1.6-1.6s-1.6,0.7-1.6,1.6v5.9h-7.6V292c0-0.9-0.7-1.6-1.6-1.6
		s-1.6,0.7-1.6,1.6v5.9h-2c-0.4,0-0.6,0.3-0.6,0.6v3.4c0,4.6,3.1,8.6,7.4,9.7v10.8c0.7,0.1,1.5,0.1,2.3,0.1c0.8,0,1.5,0,2.3-0.1
		v-10.8c4.2-1,7.4-4.8,7.4-9.4v-3.6C207.1,298.1,206.8,297.8,206.4,297.8z"/>
	<g>
		<line class="st5" x1="197.4" y1="272.7" x2="197.4" y2="267.7"/>
		<line class="st5" x1="197.4" y1="333.2" x2="197.4" y2="328.2"/>
	</g>
	<g>
		<line class="st5" x1="169.6" y1="300.4" x2="164.6" y2="300.4"/>
		<line class="st5" x1="230.2" y1="300.4" x2="225.2" y2="300.4"/>
	</g>
	<g>
		<line class="st5" x1="177.8" y1="320.1" x2="174.2" y2="323.6"/>
		<line class="st5" x1="220.6" y1="277.3" x2="217.1" y2="280.8"/>
	</g>
	<g>
		<line class="st5" x1="217.1" y1="320.1" x2="220.6" y2="323.6"/>
		<line class="st5" x1="174.2" y1="277.3" x2="177.8" y2="280.8"/>
	</g>
</g>
<g>
	<path class="st4" d="M286.8,121.3c-0.6,1.1-1.9,1.7-3.1,1.2c-2-0.7-4.1-1.1-6.3-1.1c-2.2,0-4.3,0.4-6.2,1c-1.2,0.4-2.5-0.1-3.1-1.2
		l-5.2-10.5c-0.7-1.3,0-2.9,1.3-3.4c4.1-1.6,8.6-2.5,13.2-2.5c4.7,0,9.1,0.9,13.2,2.5c1.4,0.5,2,2.1,1.3,3.4L286.8,121.3z"/>
	<path class="st6" d="M269.1,119.8"/>
	<path class="st4" d="M254.9,138.4c1.3,0.2,2.4-0.6,2.8-1.9c0.5-2,1.4-4,2.6-5.8c1.2-1.8,2.7-3.3,4.3-4.6c1-0.8,1.3-2.1,0.7-3.2
		l-5.8-10.2c-0.7-1.3-2.4-1.7-3.6-0.8c-3.6,2.5-6.9,5.7-9.5,9.6c-2.6,3.9-4.3,8.1-5.2,12.4c-0.3,1.4,0.7,2.8,2.1,3L254.9,138.4z"/>
	<path class="st7" d="M299.9,138.4c-1.3,0.2-2.4-0.6-2.8-1.9c-0.5-2-1.4-4-2.6-5.8c-1.2-1.8-2.7-3.3-4.3-4.6c-1-0.8-1.3-2.1-0.7-3.2
		l5.8-10.2c0.7-1.3,2.4-1.7,3.6-0.8c3.6,2.5,6.9,5.7,9.5,9.6c2.6,3.9,4.3,8.1,5.2,12.4c0.3,1.4-0.7,2.8-2.1,3L299.9,138.4z"/>
	<path class="st7" d="M303.9,123c-0.8-1.1-2.3-1.2-3.6-0.6l-25.6,12.7l0,0c-0.5,0.2-1,0.5-1.4,0.8c-3.3,2.4-4.1,7.1-1.7,10.4
		c2.4,3.3,7.1,4.1,10.4,1.7c0.3-0.2,0.6-0.5,0.9-0.7l0,0l20.3-20.7C304.5,125.4,304.7,124.2,303.9,123z"/>
	<circle class="st4" cx="277.4" cy="142.2" r="5.7"/>
</g>
<g>
	<g>
		<path class="st8" d="M140,111c11.1,12.1,10.2,31-1.9,42.1c-12.1,11.1-31,10.2-42.1-1.9c-11.1-12.1-10.2-31,1.9-42.1
			c1-1,2.2-1.8,3.3-2.6c1.1-0.8,2.7-0.5,3.4,0.6c0.8,1.1,0.5,2.7-0.6,3.4c-1,0.7-1.9,1.4-2.8,2.2c-10.1,9.2-10.8,25-1.5,35.1
			c9.2,10.1,25,10.8,35.1,1.5c10.1-9.2,10.8-25,1.5-35.1c-1.3-1.4-2.8-2.7-4.3-3.8c-1.1-0.8-1.4-2.3-0.6-3.4
			c0.8-1.1,2.3-1.4,3.4-0.6C136.7,107.8,138.4,109.3,140,111z"/>
	</g>
	<path class="st9" d="M115.6,127.9V96.7c0-1.4,1.1-2.5,2.5-2.5l0,0c1.4,0,2.5,1.1,2.5,2.5v31.3c0,1.4-1.1,2.5-2.5,2.5l0,0
		C116.7,130.4,115.6,129.3,115.6,127.9z"/>
</g>
<g>
	<path class="st10" d="M442.5,135V99.9c0-3.2-2.6-5.7-5.7-5.7c-3.2,0-5.7,2.6-5.7,5.7V135c-4.8,2.2-8.1,7-8.1,12.6
		c0,7.6,6.2,13.8,13.8,13.8s13.8-6.2,13.8-13.8C450.6,142,447.3,137.2,442.5,135z"/>
	<circle class="st4" cx="436.8" cy="147.8" r="9.4"/>
	<path class="st4" d="M438.4,105.7H435c-0.3,0-0.6,0.3-0.6,0.6v35h4.6v-35C439,106,438.7,105.7,438.4,105.7z"/>
	<line class="st10" x1="431" y1="110.1" x2="437.6" y2="110.1"/>
	<line class="st10" x1="431" y1="115.5" x2="437.6" y2="115.5"/>
	<line class="st10" x1="431" y1="120.8" x2="437.6" y2="120.8"/>
</g>
<g>
	<path class="st11" d="M338.5,312.6l0-33.7c-0.2-5.5,2.2-8.5,5.8-10.1c3.5-1.6,8-1.9,12.1-2c4.3-0.1,9,0.1,12.7,1.7
		c3.8,1.6,6.5,4.8,6.6,10.5l0.1,34.1C375.8,313.1,355.8,318.9,338.5,312.6z"/>
	<path class="st12" d="M340.3,308.5"/>
	<path class="st11" d="M365.3,329.7c-0.7,1.4-2,2.5-3.6,3.3c-1.3,0.6-2.8,1-4.4,1.1c-1.5,0.1-3.1-0.2-4.5-0.8
		c-1.7-0.7-3.1-1.9-4-3.6"/>
	<path class="st12" d="M375.8,311.3"/>
	<path class="st12" d="M348.9,329.7c0,0,7,1.7,16.4,0.1"/>
	<path class="st8" d="M376.1,312.1c0,0-10.3,1.9-19,1.9c-8.7,0-19-1.9-19-1.9s0,13.1,0,14.7s0.7,1.7,0.7,1.7
		c3.5,1.6,13,2.3,16.8,2.6c1.1,0.1,2.1,0.1,3.2,0c3.8-0.2,13.3-1,16.8-2.6c0,0,0.7-0.1,0.7-1.7C376.1,325.3,376.1,312.1,376.1,312.1
		z"/>
	<path class="st13" d="M350.8,321.6c0.4,0.2,6.5,1.5,12.9,0"/>
	<g>
		<g>
			<path class="st1" d="M357.2,304c-0.9,0-1.8-0.2-2.7-0.5c0,0-0.1-0.1-0.3-0.1c-0.5-0.2-1-0.5-1.4-0.8c-1.7-1.1-3.8-3-3.8-5.7
				c0-3.5,1.9-6.7,3.6-9.5c1.4-2.2,2.6-4.4,2.6-6.2c0-0.1,0.1-0.2,0.2-0.3c0,0,0.1,0,0.1,0c0.1,0,0.1,0,0.2,0.1
				c0.4,0.3,9.6,8.3,9.6,13.6c0.1,3.1-0.6,4.2-1.2,5.4c-0.4,0.7-1.2,1.6-2.2,2.3C360.9,303,359.1,304,357.2,304z"/>
			<path class="st14" d="M355.6,281.1c0,0,9.5,8.2,9.5,13.4c0.1,3-0.5,4.1-1.2,5.2c-0.3,0.6-1.1,1.5-2.1,2.2
				c-1.2,0.9-2.9,1.7-4.6,1.7c-0.8,0-1.8-0.2-2.6-0.5c0,0-0.1,0-0.3-0.1c-0.5-0.2-0.9-0.5-1.3-0.8c-1.6-1-3.7-2.9-3.7-5.4
				C349.4,290.6,355.6,285.4,355.6,281.1 M355.6,280.5c-0.1,0-0.2,0-0.3,0.1c-0.2,0.1-0.4,0.3-0.4,0.6c0,1.8-1.3,3.9-2.6,6.1
				c-1.7,2.8-3.6,6-3.6,9.6c0,2.8,2.2,4.8,4,5.9c0.4,0.3,0.9,0.6,1.4,0.8c0.2,0.1,0.3,0.1,0.3,0.1c0.9,0.4,1.9,0.6,2.8,0.6
				c1.9,0,3.8-1,5-1.8c0.9-0.7,1.8-1.7,2.2-2.4c0.7-1.2,1.4-2.4,1.3-5.5c0-5.4-9.3-13.5-9.7-13.9
				C355.9,280.6,355.8,280.5,355.6,280.5L355.6,280.5z"/>
		</g>
		<g>
			<path class="st15" d="M359.7,303.1c1.3-0.6,2.5-3.1,2.5-6.7c0-4-2.8-6.8-3.7-7.7c-0.1-0.1-0.4,0-0.4,0.2
				c-0.1,5.1-1.9,7.3-1.9,7.3c0-1.2-0.8-2.4-1.2-3c-0.1-0.1-0.3-0.1-0.4,0.1c-0.3,1.4-1.8,3.6-1.8,5.1c0,1.6,0.5,2.8,1,3.6
				c0.5,0.9,1.1,1.5,2.4,1.7C357,303.7,358.3,303.8,359.7,303.1z"/>
		</g>
	</g>
</g>
<g>
	<path class="st16" d="M186.9,248.3H49.2c-2.5,0-4.5-2-4.5-4.5v-56.3c0-2.5,2-4.5,4.5-4.5h137.6c2.5,0,4.5,2,4.5,4.5v56.3
		C191.3,246.3,189.3,248.3,186.9,248.3z"/>
	<g>
		<path class="st1" d="M66.4,200.3v0.2c0,0.4-0.2,0.6-0.6,0.6h-3.1v9.2c0,0.4-0.2,0.6-0.6,0.6h-0.5c-0.4,0-0.6-0.2-0.6-0.6v-9.2
			h-3.1c-0.4,0-0.6-0.2-0.6-0.6v-0.2c0-0.4,0.2-0.6,0.6-0.6h7.9C66.2,199.7,66.4,199.9,66.4,200.3z"/>
		<path class="st1" d="M66.4,207.4v-4c0-0.4,0.2-0.6,0.6-0.6h0.5c0.4,0,0.6,0.2,0.6,0.6v3.9c0,1.6,0.7,2.2,1.6,2.2
			c0.8,0,2.5-0.6,2.5-3v-3.2c0-0.4,0.2-0.6,0.6-0.6h0.5c0.4,0,0.6,0.2,0.6,0.6v6.9c0,0.4-0.2,0.6-0.6,0.6h-0.5
			c-0.4,0-0.6-0.2-0.6-0.6v-1c-0.4,1.1-1.4,1.7-2.7,1.7C67.7,211.1,66.4,209.9,66.4,207.4z"/>
		<path class="st1" d="M76.2,210.3v-6.9c0-0.4,0.2-0.6,0.6-0.6h0.5c0.4,0,0.6,0.2,0.6,0.6v1.2c0.3-1.3,1.2-2,2.1-2l0.4,0
			c0.3,0,0.4,0.3,0.4,0.6v0.5c0,0.4-0.2,0.6-0.4,0.5c-0.1,0-0.3,0-0.4,0c-0.6,0-2,0.3-2,3.6v2.5c0,0.4-0.2,0.6-0.6,0.6h-0.5
			C76.4,210.9,76.2,210.7,76.2,210.3z"/>
		<path class="st1" d="M82.1,210.3v-6.9c0-0.4,0.2-0.6,0.6-0.6h0.5c0.4,0,0.6,0.2,0.6,0.6v1c0.4-1.1,1.4-1.7,2.7-1.7
			c1.8,0,3.1,1.2,3.1,3.7v4c0,0.4-0.2,0.6-0.6,0.6h-0.5c-0.4,0-0.6-0.2-0.6-0.6v-3.9c0-1.6-0.8-2.2-1.6-2.2c-0.8,0-2.5,0.6-2.5,3
			v3.2c0,0.4-0.2,0.6-0.6,0.6h-0.5C82.3,210.9,82.1,210.7,82.1,210.3z"/>
		<path class="st1" d="M95.4,206.9c0-2.3,1.6-4.2,4-4.2c1.1,0,2.1,0.4,2.9,1.4v-0.7c0-0.4,0.2-0.6,0.6-0.6h0.5
			c0.4,0,0.6,0.2,0.6,0.6v6.9c0,0.4-0.2,0.6-0.6,0.6h-0.5c-0.4,0-0.6-0.2-0.6-0.6v-0.7c-0.8,1.1-1.8,1.4-2.9,1.4
			C97,211.1,95.4,209.2,95.4,206.9z M102.3,206.9c0-1.6-1.1-2.8-2.7-2.8c-1.6,0-2.5,1.3-2.5,2.8c0,1.5,0.9,2.8,2.5,2.8
			C101.2,209.6,102.3,208.5,102.3,206.9z"/>
		<path class="st1" d="M106.3,213.9v-10.5c0-0.4,0.2-0.6,0.6-0.6h0.5c0.4,0,0.6,0.2,0.6,0.6v0.7c0.8-1.1,1.8-1.4,2.9-1.4
			c2.4,0,4,1.9,4,4.2s-1.6,4.2-4,4.2c-1.1,0-2.1-0.4-2.9-1.4v4.3c0,0.4-0.2,0.6-0.6,0.6h-0.5C106.5,214.5,106.3,214.3,106.3,213.9z
			 M113.2,206.9c0-1.5-0.9-2.8-2.6-2.8c-1.6,0-2.7,1.2-2.7,2.8c0,1.6,1.1,2.8,2.7,2.8C112.2,209.6,113.2,208.4,113.2,206.9z"/>
		<path class="st1" d="M116.6,213.9v-10.5c0-0.4,0.2-0.6,0.6-0.6h0.5c0.4,0,0.6,0.2,0.6,0.6v0.7c0.8-1.1,1.8-1.4,2.9-1.4
			c2.4,0,4,1.9,4,4.2s-1.6,4.2-4,4.2c-1.1,0-2.1-0.4-2.9-1.4v4.3c0,0.4-0.2,0.6-0.6,0.6h-0.5C116.8,214.5,116.6,214.3,116.6,213.9z
			 M123.5,206.9c0-1.5-0.9-2.8-2.6-2.8c-1.6,0-2.7,1.2-2.7,2.8c0,1.6,1.1,2.8,2.7,2.8C122.5,209.6,123.5,208.4,123.5,206.9z"/>
		<path class="st1" d="M127,210.3v-10.4c0-0.4,0.2-0.6,0.6-0.6h0.5c0.4,0,0.6,0.2,0.6,0.6v10.4c0,0.4-0.2,0.6-0.6,0.6h-0.5
			C127.2,210.9,127,210.7,127,210.3z"/>
		<path class="st1" d="M130.9,200.3c0-0.6,0.5-1.1,1.1-1.1c0.7,0,1.1,0.5,1.1,1.1c0,0.6-0.5,1.1-1.1,1.1
			C131.3,201.4,130.9,200.9,130.9,200.3z M131.2,210.3v-6.9c0-0.4,0.2-0.6,0.6-0.6h0.5c0.4,0,0.6,0.2,0.6,0.6v6.9
			c0,0.4-0.2,0.6-0.6,0.6h-0.5C131.4,210.9,131.2,210.7,131.2,210.3z"/>
		<path class="st1" d="M134.7,206.9c0-2.3,1.6-4.2,4-4.2c1.1,0,2.1,0.4,2.9,1.4v-0.7c0-0.4,0.2-0.6,0.6-0.6h0.5
			c0.4,0,0.6,0.2,0.6,0.6v6.9c0,0.4-0.2,0.6-0.6,0.6h-0.5c-0.4,0-0.6-0.2-0.6-0.6v-0.7c-0.8,1.1-1.8,1.4-2.9,1.4
			C136.3,211.1,134.7,209.2,134.7,206.9z M141.6,206.9c0-1.6-1.1-2.8-2.7-2.8c-1.6,0-2.5,1.3-2.5,2.8c0,1.5,0.9,2.8,2.5,2.8
			C140.5,209.6,141.5,208.5,141.6,206.9z"/>
		<path class="st1" d="M145.6,210.3v-6.9c0-0.4,0.2-0.6,0.6-0.6h0.5c0.4,0,0.6,0.2,0.6,0.6v1c0.4-1.1,1.4-1.7,2.7-1.7
			c1.8,0,3.1,1.2,3.1,3.7v4c0,0.4-0.2,0.6-0.6,0.6h-0.5c-0.4,0-0.6-0.2-0.6-0.6v-3.9c0-1.6-0.8-2.2-1.6-2.2c-0.8,0-2.5,0.6-2.5,3
			v3.2c0,0.4-0.2,0.6-0.6,0.6h-0.5C145.8,210.9,145.6,210.7,145.6,210.3z"/>
		<path class="st1" d="M154.7,207c0-2.4,1.6-4.3,4.5-4.3c0.6,0,1.5,0.1,2.4,0.7c0.3,0.2,0.4,0.5,0.2,0.8l-0.1,0.2
			c-0.2,0.3-0.5,0.3-0.8,0.2c-0.7-0.3-1.4-0.4-1.6-0.4c-1.7,0-2.9,1.1-2.9,2.7c0,1.6,1.2,2.8,2.9,2.8c0.2,0,0.9,0,1.6-0.4
			c0.4-0.2,0.6-0.1,0.8,0.2l0.1,0.2c0.2,0.3,0.1,0.7-0.4,0.9c-0.8,0.4-1.6,0.5-2.2,0.5C156.4,211.1,154.7,209.3,154.7,207z"/>
		<path class="st1" d="M163,206.9c0-2.3,1.8-4.2,4.3-4.2c2,0,3.9,1.2,4.1,3.8c0,0.4-0.2,0.6-0.6,0.6h-6.2c0,1.5,1.2,2.6,2.9,2.6
			c0.8,0,1.5-0.2,2.2-0.7c0.3-0.2,0.6-0.2,0.8,0.1l0.1,0.1c0.3,0.3,0.3,0.6-0.1,0.9c-0.9,0.8-2,1-3,1
			C164.7,211.1,163,209.2,163,206.9z M169.7,205.8c-0.4-1.4-1.5-1.7-2.4-1.7c-0.9,0-2.1,0.4-2.6,1.7H169.7z"/>
		<path class="st1" d="M172.6,209.5c-0.2-0.4,0-0.6,0.4-0.7l0.3-0.1c0.3-0.1,0.5,0.1,0.7,0.3c0.3,0.4,0.9,0.7,1.5,0.7
			c0.8,0,1.3-0.4,1.3-1.1c0-0.5-0.4-0.8-1-1l-1.1-0.4c-1.2-0.4-2-1.1-2-2.2c0-1.4,1.1-2.4,2.7-2.4c1,0,1.9,0.3,2.4,1.3
			c0.2,0.4,0,0.7-0.4,0.7l-0.3,0.1c-0.3,0.1-0.5,0-0.8-0.3c-0.3-0.3-0.6-0.4-1-0.4c-0.7,0-1.2,0.4-1.2,1c0,0.5,0.5,0.8,0.9,0.9
			l1.2,0.4c1.5,0.5,2,1.4,2,2.3c0,1.5-1.3,2.4-2.9,2.4C174.3,211.1,173.1,210.5,172.6,209.5z"/>
		<path class="st1" d="M74.7,226.9c0-2.3,1.9-4.2,4.2-4.2c2.4,0,4.3,1.9,4.3,4.2c0,2.3-1.9,4.2-4.3,4.2
			C76.6,231.1,74.7,229.2,74.7,226.9z M81.5,226.9c0-1.5-1.2-2.8-2.6-2.8c-1.4,0-2.6,1.2-2.6,2.8s1.2,2.7,2.6,2.7
			C80.4,229.6,81.5,228.4,81.5,226.9z"/>
		<path class="st1" d="M85.4,230.3v-6.2h-0.9c-0.2,0-0.3-0.1-0.3-0.3v-0.6c0-0.2,0.1-0.3,0.3-0.3h0.9v-0.6c0-2.6,1.4-3.1,2.7-3.1
			c1.1,0,1.8,0.4,2.2,1.1c0.2,0.3,0.1,0.5-0.2,0.7l-0.4,0.2c-0.3,0.1-0.4,0.1-0.6-0.2c-0.2-0.3-0.5-0.3-0.8-0.3
			c-0.6,0-1.2,0.4-1.2,1.5v0.8h4.3v-0.6c0-2.6,1.4-3.1,2.7-3.1c1.5,0,2.3,0.8,2.3,1.9c0,0.3-0.1,0.4-0.4,0.4l-0.4,0
			c-0.2,0-0.4,0-0.5-0.3c-0.1-0.6-0.5-0.7-0.9-0.7c-0.6,0-1.2,0.4-1.2,1.5v0.8h1.7c0.2,0,0.3,0.1,0.3,0.3v0.6c0,0.2-0.1,0.3-0.3,0.3
			h-1.7v6.2c0,0.4-0.2,0.6-0.6,0.6H92c-0.4,0-0.6-0.2-0.6-0.6v-6.2h-4.3v6.2c0,0.4-0.2,0.6-0.6,0.6h-0.5
			C85.6,230.9,85.4,230.7,85.4,230.3z"/>
		<path class="st1" d="M100,229.5c-0.2-0.4,0-0.6,0.4-0.7l0.3-0.1c0.3-0.1,0.5,0.1,0.7,0.3c0.3,0.4,0.9,0.7,1.5,0.7
			c0.8,0,1.3-0.4,1.3-1.1c0-0.5-0.4-0.8-1-1l-1.1-0.4c-1.2-0.4-2-1.1-2-2.2c0-1.4,1.1-2.4,2.7-2.4c1,0,1.9,0.3,2.4,1.3
			c0.2,0.4,0,0.7-0.4,0.7l-0.3,0.1c-0.3,0.1-0.5,0-0.8-0.3c-0.3-0.3-0.6-0.4-1-0.4c-0.7,0-1.2,0.4-1.2,1c0,0.5,0.5,0.8,0.9,0.9
			l1.2,0.4c1.5,0.5,2,1.4,2,2.3c0,1.5-1.3,2.4-2.9,2.4C101.6,231.1,100.5,230.5,100,229.5z"/>
		<path class="st1" d="M108,228.3v-4.2h-1c-0.2,0-0.3-0.1-0.3-0.3v-0.6c0-0.2,0.1-0.3,0.3-0.3h1l0.3-1.8c0-0.3,0.2-0.5,0.5-0.5h0.3
			c0.3,0,0.5,0.2,0.5,0.5v1.8h2.2c0.2,0,0.3,0.1,0.3,0.3v0.6c0,0.2-0.1,0.3-0.3,0.3h-2.2v4.3c0,0.9,0.4,1.2,0.9,1.2
			c0.5,0,0.9-0.3,0.9-0.9c0-0.1,0-0.2,0-0.3c0-0.2,0.1-0.4,0.3-0.4h0.7c0.2,0,0.3,0.1,0.4,0.3c0.1,0.3,0.1,0.6,0.1,0.6
			c0,1.2-0.9,2.1-2.4,2.1C109.3,231.1,108,230.4,108,228.3z"/>
		<path class="st1" d="M113.8,226.9c0-2.3,1.6-4.2,4-4.2c1.1,0,2.1,0.4,2.9,1.4v-0.7c0-0.4,0.2-0.6,0.6-0.6h0.5
			c0.4,0,0.6,0.2,0.6,0.6v6.9c0,0.4-0.2,0.6-0.6,0.6h-0.5c-0.4,0-0.6-0.2-0.6-0.6v-0.7c-0.8,1.1-1.8,1.4-2.9,1.4
			C115.4,231.1,113.8,229.2,113.8,226.9z M120.7,226.9c0-1.6-1.1-2.8-2.7-2.8c-1.6,0-2.5,1.3-2.5,2.8c0,1.5,0.9,2.8,2.5,2.8
			C119.6,229.6,120.6,228.5,120.7,226.9z"/>
		<path class="st1" d="M124.7,230.3v-6.9c0-0.4,0.2-0.6,0.6-0.6h0.5c0.4,0,0.6,0.2,0.6,0.6v1c0.4-1.1,1.4-1.7,2.7-1.7
			c1.8,0,3.1,1.2,3.1,3.7v4c0,0.4-0.2,0.6-0.6,0.6H131c-0.4,0-0.6-0.2-0.6-0.6v-3.9c0-1.6-0.8-2.2-1.6-2.2c-0.8,0-2.5,0.6-2.5,3v3.2
			c0,0.4-0.2,0.6-0.6,0.6h-0.5C124.9,230.9,124.7,230.7,124.7,230.3z"/>
		<path class="st1" d="M133.8,226.9c0-2.3,1.6-4.2,4-4.2c1.1,0,2.1,0.4,2.9,1.4v-4.2c0-0.4,0.2-0.6,0.6-0.6h0.5
			c0.4,0,0.6,0.2,0.6,0.6v10.4c0,0.4-0.2,0.6-0.6,0.6h-0.5c-0.4,0-0.6-0.2-0.6-0.6v-0.7c-0.8,1.1-1.8,1.4-2.9,1.4
			C135.4,231.1,133.8,229.2,133.8,226.9z M140.7,226.9c0-1.6-1.1-2.8-2.7-2.8c-1.6,0-2.5,1.3-2.5,2.8c0,1.5,0.9,2.8,2.5,2.8
			C139.6,229.6,140.7,228.5,140.7,226.9z"/>
		<path class="st1" d="M146.3,229.6v0.7c0,0.4-0.2,0.6-0.6,0.6h-0.5c-0.4,0-0.6-0.2-0.6-0.6v-10.4c0-0.4,0.2-0.6,0.6-0.6h0.5
			c0.4,0,0.6,0.2,0.6,0.6v4.2c0.8-1.1,1.8-1.4,2.9-1.4c2.4,0,4,1.9,4,4.2s-1.6,4.2-4,4.2C148.2,231.1,147.1,230.7,146.3,229.6z
			 M151.5,226.9c0-1.5-0.9-2.8-2.6-2.8c-1.6,0-2.7,1.2-2.7,2.8c0,1.6,1.1,2.8,2.7,2.8C150.6,229.6,151.5,228.4,151.5,226.9z"/>
		<path class="st1" d="M155.9,233.8l1.2-3.2l-3.1-7c-0.2-0.4,0-0.7,0.4-0.7h0.6c0.3,0,0.5,0.1,0.7,0.4l2.2,5.4l2-5.4
			c0.1-0.3,0.4-0.5,0.7-0.5h0.7c0.4,0,0.6,0.3,0.4,0.7l-4.5,10.5c-0.1,0.3-0.3,0.4-0.7,0.4h-0.4C156,234.5,155.8,234.2,155.9,233.8z
			"/>
	</g>
</g>
<path class="st16" d="M266.2,421.1H128.6c-2.5,0-4.5-2-4.5-4.5v-56.3c0-2.5,2-4.5,4.5-4.5h137.6c2.5,0,4.5,2,4.5,4.5v56.3
	C270.7,419.1,268.7,421.1,266.2,421.1z"/>
<path class="st16" d="M425.9,421.1H288.3c-2.5,0-4.5-2-4.5-4.5v-56.3c0-2.5,2-4.5,4.5-4.5h137.6c2.5,0,4.5,2,4.5,4.5v56.3
	C430.4,419.1,428.4,421.1,425.9,421.1z"/>
<g>
	<path class="st16" d="M346.2,248.3H208.6c-2.5,0-4.5-2-4.5-4.5v-56.3c0-2.5,2-4.5,4.5-4.5h137.6c2.5,0,4.5,2,4.5,4.5v56.3
		C350.7,246.3,348.7,248.3,346.2,248.3z"/>
	<g>
		<path class="st1" d="M246.6,200.6v0.2c0,0.4-0.2,0.6-0.6,0.6h-3.1v9.2c0,0.4-0.2,0.6-0.6,0.6h-0.5c-0.4,0-0.6-0.2-0.6-0.6v-9.2
			h-3.1c-0.4,0-0.6-0.2-0.6-0.6v-0.2c0-0.4,0.2-0.6,0.6-0.6h7.9C246.4,200,246.6,200.2,246.6,200.6z"/>
		<path class="st1" d="M246.6,207.8v-4c0-0.4,0.2-0.6,0.6-0.6h0.5c0.4,0,0.6,0.2,0.6,0.6v3.9c0,1.6,0.7,2.2,1.6,2.2
			c0.8,0,2.5-0.6,2.5-3v-3.2c0-0.4,0.2-0.6,0.6-0.6h0.5c0.4,0,0.6,0.2,0.6,0.6v6.9c0,0.4-0.2,0.6-0.6,0.6h-0.5
			c-0.4,0-0.6-0.2-0.6-0.6v-1c-0.4,1.1-1.4,1.7-2.7,1.7C247.9,211.4,246.6,210.3,246.6,207.8z"/>
		<path class="st1" d="M256.4,210.7v-6.9c0-0.4,0.2-0.6,0.6-0.6h0.5c0.4,0,0.6,0.2,0.6,0.6v1.2c0.3-1.3,1.2-2,2.1-2l0.4,0
			c0.3,0,0.4,0.3,0.4,0.6v0.5c0,0.4-0.2,0.6-0.4,0.5c-0.1,0-0.3,0-0.4,0c-0.6,0-2,0.3-2,3.6v2.5c0,0.4-0.2,0.6-0.6,0.6H257
			C256.6,211.2,256.4,211,256.4,210.7z"/>
		<path class="st1" d="M262.3,210.7v-6.9c0-0.4,0.2-0.6,0.6-0.6h0.5c0.4,0,0.6,0.2,0.6,0.6v1c0.4-1.1,1.4-1.7,2.7-1.7
			c1.8,0,3.1,1.2,3.1,3.7v4c0,0.4-0.2,0.6-0.6,0.6h-0.5c-0.4,0-0.6-0.2-0.6-0.6v-3.9c0-1.6-0.8-2.2-1.6-2.2c-0.8,0-2.5,0.6-2.5,3
			v3.2c0,0.4-0.2,0.6-0.6,0.6h-0.5C262.5,211.2,262.3,211,262.3,210.7z"/>
		<path class="st1" d="M275.6,207.2c0-2.3,1.6-4.2,4-4.2c1.1,0,2.1,0.4,2.9,1.4v-4.2c0-0.4,0.2-0.6,0.6-0.6h0.5
			c0.4,0,0.6,0.2,0.6,0.6v10.4c0,0.4-0.2,0.6-0.6,0.6H283c-0.4,0-0.6-0.2-0.6-0.6V210c-0.8,1.1-1.8,1.4-2.9,1.4
			C277.2,211.4,275.6,209.5,275.6,207.2z M282.5,207.2c0-1.6-1.1-2.8-2.7-2.8c-1.6,0-2.5,1.3-2.5,2.8c0,1.5,0.9,2.8,2.5,2.8
			C281.4,210,282.5,208.8,282.5,207.2z"/>
		<path class="st1" d="M285.9,207.2c0-2.3,1.9-4.2,4.2-4.2c2.4,0,4.3,1.9,4.3,4.2c0,2.3-1.9,4.2-4.3,4.2
			C287.8,211.4,285.9,209.6,285.9,207.2z M292.8,207.2c0-1.5-1.2-2.8-2.6-2.8c-1.4,0-2.6,1.2-2.6,2.8s1.2,2.7,2.6,2.7
			C291.6,210,292.8,208.8,292.8,207.2z"/>
		<path class="st1" d="M297.9,210.8l-2.5-6.9c-0.1-0.4,0-0.7,0.5-0.7h0.5c0.3,0,0.6,0.1,0.7,0.5l1.9,5.3l1.6-5.1
			c0.1-0.3,0.3-0.5,0.6-0.5h0.4c0.3,0,0.5,0.2,0.6,0.5l1.6,5.1l1.8-5.3c0.1-0.3,0.3-0.5,0.7-0.5h0.5c0.4,0,0.6,0.2,0.5,0.7l-2.5,6.9
			c-0.1,0.3-0.3,0.5-0.7,0.5h-0.5c-0.3,0-0.5-0.2-0.7-0.5l-1.6-5l-1.6,5c-0.1,0.3-0.3,0.5-0.7,0.5h-0.5
			C298.2,211.2,298,211.1,297.9,210.8z"/>
		<path class="st1" d="M309.1,210.7v-6.9c0-0.4,0.2-0.6,0.6-0.6h0.5c0.4,0,0.6,0.2,0.6,0.6v1c0.4-1.1,1.4-1.7,2.7-1.7
			c1.8,0,3.1,1.2,3.1,3.7v4c0,0.4-0.2,0.6-0.6,0.6h-0.5c-0.4,0-0.6-0.2-0.6-0.6v-3.9c0-1.6-0.8-2.2-1.6-2.2c-0.8,0-2.5,0.6-2.5,3
			v3.2c0,0.4-0.2,0.6-0.6,0.6h-0.5C309.3,211.2,309.1,211,309.1,210.7z"/>
		<path class="st1" d="M235.3,228.7v-4.2h-1c-0.2,0-0.3-0.1-0.3-0.3v-0.6c0-0.2,0.1-0.3,0.3-0.3h1l0.3-1.8c0-0.3,0.2-0.5,0.5-0.5
			h0.3c0.3,0,0.5,0.2,0.5,0.5v1.8h2.2c0.2,0,0.3,0.1,0.3,0.3v0.6c0,0.2-0.1,0.3-0.3,0.3H237v4.3c0,0.9,0.4,1.2,0.9,1.2
			c0.5,0,0.9-0.3,0.9-0.9c0-0.1,0-0.2,0-0.3c0-0.2,0.1-0.4,0.3-0.4h0.7c0.2,0,0.3,0.1,0.4,0.3c0.1,0.3,0.1,0.6,0.1,0.6
			c0,1.2-0.9,2.1-2.4,2.1C236.6,231.4,235.3,230.8,235.3,228.7z"/>
		<path class="st1" d="M241.7,230.7v-10.4c0-0.4,0.2-0.6,0.6-0.6h0.5c0.4,0,0.6,0.2,0.6,0.6v4.5c0.4-1.1,1.4-1.7,2.7-1.7
			c1.8,0,3.1,1.2,3.1,3.7v4c0,0.4-0.2,0.6-0.6,0.6H248c-0.4,0-0.6-0.2-0.6-0.6v-3.9c0-1.6-0.8-2.2-1.6-2.2c-0.8,0-2.5,0.6-2.5,3v3.2
			c0,0.4-0.2,0.6-0.6,0.6h-0.5C241.9,231.2,241.7,231,241.7,230.7z"/>
		<path class="st1" d="M250.8,227.3c0-2.3,1.8-4.2,4.3-4.2c2,0,3.9,1.2,4.1,3.8c0,0.4-0.2,0.6-0.6,0.6h-6.2c0,1.5,1.2,2.6,2.9,2.6
			c0.8,0,1.5-0.2,2.2-0.7c0.3-0.2,0.6-0.2,0.8,0.1l0.1,0.1c0.3,0.3,0.3,0.6-0.1,0.9c-0.9,0.8-2,1-3,1
			C252.5,231.4,250.8,229.5,250.8,227.3z M257.5,226.2c-0.4-1.4-1.5-1.7-2.4-1.7c-0.9,0-2.1,0.4-2.6,1.7H257.5z"/>
		<path class="st1" d="M260.9,230.7v-6.9c0-0.4,0.2-0.6,0.6-0.6h0.5c0.4,0,0.6,0.2,0.6,0.6v1.2c0.3-1.3,1.2-2,2.1-2l0.4,0
			c0.3,0,0.4,0.3,0.4,0.6v0.5c0,0.4-0.2,0.6-0.4,0.5c-0.1,0-0.3,0-0.4,0c-0.6,0-2,0.3-2,3.6v2.5c0,0.4-0.2,0.6-0.6,0.6h-0.5
			C261.1,231.2,260.9,231,260.9,230.7z"/>
		<path class="st1" d="M266.8,230.7v-6.9c0-0.4,0.2-0.6,0.6-0.6h0.5c0.4,0,0.6,0.2,0.6,0.6v1c0.3-1.2,1.4-1.7,2.5-1.7
			c0.8,0,1.9,0.3,2.5,1.6c0.7-1.4,1.8-1.6,2.7-1.6c1.9,0,3.1,1.2,3.1,3.7v4c0,0.4-0.2,0.6-0.6,0.6h-0.5c-0.4,0-0.6-0.2-0.6-0.6v-4
			c0-1.6-0.7-2.2-1.6-2.2c-0.7,0-2.1,0.5-2.2,2.8v3.4c0,0.4-0.2,0.6-0.6,0.6h-0.5c-0.4,0-0.6-0.2-0.6-0.6v-4c0-1.6-0.7-2.2-1.6-2.2
			c-0.8,0-2.2,0.6-2.2,3v3.2c0,0.4-0.2,0.6-0.6,0.6h-0.5C267.1,231.2,266.8,231,266.8,230.7z"/>
		<path class="st1" d="M281,227.2c0-2.3,1.9-4.2,4.2-4.2c2.4,0,4.3,1.9,4.3,4.2c0,2.3-1.9,4.2-4.3,4.2
			C282.9,231.4,281,229.6,281,227.2z M287.9,227.2c0-1.5-1.2-2.8-2.6-2.8c-1.4,0-2.6,1.2-2.6,2.8s1.2,2.7,2.6,2.7
			C286.7,230,287.9,228.8,287.9,227.2z"/>
		<path class="st1" d="M290.8,229.9c-0.2-0.4,0-0.6,0.4-0.7l0.3-0.1c0.3-0.1,0.5,0.1,0.7,0.3c0.3,0.4,0.9,0.7,1.5,0.7
			c0.8,0,1.3-0.4,1.3-1.1c0-0.5-0.4-0.8-1-1l-1.1-0.4c-1.2-0.4-2-1.1-2-2.2c0-1.4,1.1-2.4,2.7-2.4c1,0,1.9,0.3,2.4,1.3
			c0.2,0.4,0,0.7-0.4,0.7l-0.3,0.1c-0.3,0.1-0.5,0-0.8-0.3c-0.3-0.3-0.6-0.4-1-0.4c-0.7,0-1.2,0.4-1.2,1c0,0.5,0.5,0.8,0.9,0.9
			l1.2,0.4c1.5,0.5,2,1.4,2,2.3c0,1.5-1.3,2.4-2.9,2.4C292.5,231.4,291.4,230.9,290.8,229.9z"/>
		<path class="st1" d="M298.8,228.7v-4.2h-1c-0.2,0-0.3-0.1-0.3-0.3v-0.6c0-0.2,0.1-0.3,0.3-0.3h1l0.3-1.8c0-0.3,0.2-0.5,0.5-0.5
			h0.3c0.3,0,0.5,0.2,0.5,0.5v1.8h2.2c0.2,0,0.3,0.1,0.3,0.3v0.6c0,0.2-0.1,0.3-0.3,0.3h-2.2v4.3c0,0.9,0.4,1.2,0.9,1.2
			c0.5,0,0.9-0.3,0.9-0.9c0-0.1,0-0.2,0-0.3c0-0.2,0.1-0.4,0.3-0.4h0.7c0.2,0,0.3,0.1,0.4,0.3c0.1,0.3,0.1,0.6,0.1,0.6
			c0,1.2-0.9,2.1-2.4,2.1C300.1,231.4,298.8,230.8,298.8,228.7z"/>
		<path class="st1" d="M304.6,227.2c0-2.3,1.6-4.2,4-4.2c1.1,0,2.1,0.4,2.9,1.4v-0.7c0-0.4,0.2-0.6,0.6-0.6h0.5
			c0.4,0,0.6,0.2,0.6,0.6v6.9c0,0.4-0.2,0.6-0.6,0.6h-0.5c-0.4,0-0.6-0.2-0.6-0.6V230c-0.8,1.1-1.8,1.4-2.9,1.4
			C306.2,231.4,304.6,229.5,304.6,227.2z M311.5,227.2c0-1.6-1.1-2.8-2.7-2.8c-1.6,0-2.5,1.3-2.5,2.8c0,1.5,0.9,2.8,2.5,2.8
			C310.4,230,311.5,228.8,311.5,227.2z"/>
		<path class="st1" d="M315.9,228.7v-4.2h-1c-0.2,0-0.3-0.1-0.3-0.3v-0.6c0-0.2,0.1-0.3,0.3-0.3h1l0.3-1.8c0-0.3,0.2-0.5,0.5-0.5
			h0.3c0.3,0,0.5,0.2,0.5,0.5v1.8h2.2c0.2,0,0.3,0.1,0.3,0.3v0.6c0,0.2-0.1,0.3-0.3,0.3h-2.2v4.3c0,0.9,0.4,1.2,0.9,1.2
			c0.5,0,0.9-0.3,0.9-0.9c0-0.1,0-0.2,0-0.3c0-0.2,0.1-0.4,0.3-0.4h0.7c0.2,0,0.3,0.1,0.4,0.3c0.1,0.3,0.1,0.6,0.1,0.6
			c0,1.2-0.9,2.1-2.4,2.1C317.2,231.4,315.9,230.8,315.9,228.7z"/>
	</g>
</g>
<g>
	<path class="st16" d="M505.6,248.3H368c-2.5,0-4.5-2-4.5-4.5v-56.3c0-2.5,2-4.5,4.5-4.5h137.6c2.5,0,4.5,2,4.5,4.5v56.3
		C510.1,246.3,508.1,248.3,505.6,248.3z"/>
	<g>
		<path class="st1" d="M383.1,209.6v-10.1c0-0.4,0.2-0.6,0.6-0.6h0.5c0.4,0,0.6,0.2,0.6,0.6v10.1c0,0.4-0.2,0.6-0.6,0.6h-0.5
			C383.3,210.1,383.1,209.9,383.1,209.6z"/>
		<path class="st1" d="M387.4,209.6v-6.9c0-0.4,0.2-0.6,0.6-0.6h0.5c0.4,0,0.6,0.2,0.6,0.6v1c0.4-1.1,1.4-1.7,2.7-1.7
			c1.8,0,3.1,1.2,3.1,3.7v4c0,0.4-0.2,0.6-0.6,0.6h-0.5c-0.4,0-0.6-0.2-0.6-0.6v-3.9c0-1.6-0.8-2.2-1.6-2.2c-0.8,0-2.5,0.6-2.5,3
			v3.2c0,0.4-0.2,0.6-0.6,0.6H388C387.6,210.1,387.4,209.9,387.4,209.6z"/>
		<path class="st1" d="M396.6,208.8c-0.2-0.4,0-0.6,0.4-0.7l0.3-0.1c0.3-0.1,0.5,0.1,0.7,0.3c0.3,0.4,0.9,0.7,1.5,0.7
			c0.8,0,1.3-0.4,1.3-1.1c0-0.5-0.4-0.8-1-1l-1.1-0.4c-1.2-0.4-2-1.1-2-2.2c0-1.4,1.1-2.4,2.7-2.4c1,0,1.9,0.3,2.4,1.3
			c0.2,0.4,0,0.7-0.4,0.7l-0.3,0.1c-0.3,0.1-0.5,0-0.8-0.3c-0.3-0.3-0.6-0.4-1-0.4c-0.7,0-1.2,0.4-1.2,1c0,0.5,0.5,0.8,0.9,0.9
			l1.2,0.4c1.5,0.5,2,1.4,2,2.3c0,1.5-1.3,2.4-2.9,2.4C398.3,210.3,397.1,209.8,396.6,208.8z"/>
		<path class="st1" d="M404.6,207.6v-4.2h-1c-0.2,0-0.3-0.1-0.3-0.3v-0.6c0-0.2,0.1-0.3,0.3-0.3h1l0.3-1.8c0-0.3,0.2-0.5,0.5-0.5
			h0.3c0.3,0,0.5,0.2,0.5,0.5v1.8h2.2c0.2,0,0.3,0.1,0.3,0.3v0.6c0,0.2-0.1,0.3-0.3,0.3h-2.2v4.3c0,0.9,0.4,1.2,0.9,1.2
			c0.5,0,0.9-0.3,0.9-0.9c0-0.1,0-0.2,0-0.3c0-0.2,0.1-0.4,0.3-0.4h0.7c0.2,0,0.3,0.1,0.4,0.3c0.1,0.3,0.1,0.6,0.1,0.6
			c0,1.2-0.9,2.1-2.4,2.1C405.9,210.3,404.6,209.7,404.6,207.6z"/>
		<path class="st1" d="M410.4,206.1c0-2.3,1.6-4.2,4-4.2c1.1,0,2.1,0.4,2.9,1.4v-0.7c0-0.4,0.2-0.6,0.6-0.6h0.5
			c0.4,0,0.6,0.2,0.6,0.6v6.9c0,0.4-0.2,0.6-0.6,0.6h-0.5c-0.4,0-0.6-0.2-0.6-0.6v-0.7c-0.8,1.1-1.8,1.4-2.9,1.4
			C412,210.3,410.4,208.4,410.4,206.1z M417.3,206.1c0-1.6-1.1-2.8-2.7-2.8c-1.6,0-2.5,1.3-2.5,2.8c0,1.5,0.9,2.8,2.5,2.8
			C416.2,208.9,417.2,207.7,417.3,206.1z"/>
		<path class="st1" d="M421.3,209.6v-10.4c0-0.4,0.2-0.6,0.6-0.6h0.5c0.4,0,0.6,0.2,0.6,0.6v10.4c0,0.4-0.2,0.6-0.6,0.6h-0.5
			C421.6,210.1,421.3,209.9,421.3,209.6z"/>
		<path class="st1" d="M425.5,209.6v-10.4c0-0.4,0.2-0.6,0.6-0.6h0.5c0.4,0,0.6,0.2,0.6,0.6v10.4c0,0.4-0.2,0.6-0.6,0.6h-0.5
			C425.7,210.1,425.5,209.9,425.5,209.6z"/>
		<path class="st1" d="M433.2,206.1c0-2.3,1.6-4.2,4-4.2c1.1,0,2.1,0.4,2.9,1.4v-0.7c0-0.4,0.2-0.6,0.6-0.6h0.5
			c0.4,0,0.6,0.2,0.6,0.6v6.9c0,0.4-0.2,0.6-0.6,0.6h-0.5c-0.4,0-0.6-0.2-0.6-0.6v-0.7c-0.8,1.1-1.8,1.4-2.9,1.4
			C434.8,210.3,433.2,208.4,433.2,206.1z M440.1,206.1c0-1.6-1.1-2.8-2.7-2.8c-1.6,0-2.5,1.3-2.5,2.8c0,1.5,0.9,2.8,2.5,2.8
			C439,208.9,440.1,207.7,440.1,206.1z"/>
		<path class="st1" d="M447.8,208.8c-0.2-0.4,0-0.6,0.4-0.7l0.3-0.1c0.3-0.1,0.5,0.1,0.7,0.3c0.3,0.4,0.9,0.7,1.5,0.7
			c0.8,0,1.3-0.4,1.3-1.1c0-0.5-0.4-0.8-1-1l-1.1-0.4c-1.2-0.4-2-1.1-2-2.2c0-1.4,1.1-2.4,2.7-2.4c1,0,1.9,0.3,2.4,1.3
			c0.2,0.4,0,0.7-0.4,0.7l-0.3,0.1c-0.3,0.1-0.5,0-0.8-0.3c-0.3-0.3-0.6-0.4-1-0.4c-0.7,0-1.2,0.4-1.2,1c0,0.5,0.5,0.8,0.9,0.9
			l1.2,0.4c1.5,0.5,2,1.4,2,2.3c0,1.5-1.3,2.4-2.9,2.4C449.5,210.3,448.3,209.8,447.8,208.8z"/>
		<path class="st1" d="M455.4,209.6v-6.9c0-0.4,0.2-0.6,0.6-0.6h0.5c0.4,0,0.6,0.2,0.6,0.6v1c0.3-1.2,1.4-1.7,2.5-1.7
			c0.8,0,1.9,0.3,2.5,1.6c0.7-1.4,1.8-1.6,2.7-1.6c1.9,0,3.1,1.2,3.1,3.7v4c0,0.4-0.2,0.6-0.6,0.6h-0.5c-0.4,0-0.6-0.2-0.6-0.6v-4
			c0-1.6-0.7-2.2-1.6-2.2c-0.7,0-2.1,0.5-2.2,2.8v3.4c0,0.4-0.2,0.6-0.6,0.6h-0.5c-0.4,0-0.6-0.2-0.6-0.6v-4c0-1.6-0.7-2.2-1.6-2.2
			c-0.8,0-2.2,0.6-2.2,3v3.2c0,0.4-0.2,0.6-0.6,0.6H456C455.6,210.1,455.4,209.9,455.4,209.6z"/>
		<path class="st1" d="M469.6,206.1c0-2.3,1.6-4.2,4-4.2c1.1,0,2.1,0.4,2.9,1.4v-0.7c0-0.4,0.2-0.6,0.6-0.6h0.5
			c0.4,0,0.6,0.2,0.6,0.6v6.9c0,0.4-0.2,0.6-0.6,0.6h-0.5c-0.4,0-0.6-0.2-0.6-0.6v-0.7c-0.8,1.1-1.8,1.4-2.9,1.4
			C471.2,210.3,469.6,208.4,469.6,206.1z M476.5,206.1c0-1.6-1.1-2.8-2.7-2.8c-1.6,0-2.5,1.3-2.5,2.8c0,1.5,0.9,2.8,2.5,2.8
			C475.4,208.9,476.5,207.7,476.5,206.1z"/>
		<path class="st1" d="M480.5,209.6v-6.9c0-0.4,0.2-0.6,0.6-0.6h0.5c0.4,0,0.6,0.2,0.6,0.6v1.2c0.3-1.3,1.2-2,2.1-2l0.4,0
			c0.3,0,0.4,0.3,0.4,0.6v0.5c0,0.4-0.2,0.6-0.4,0.5c-0.1,0-0.3,0-0.4,0c-0.6,0-2,0.3-2,3.6v2.5c0,0.4-0.2,0.6-0.6,0.6h-0.5
			C480.8,210.1,480.5,209.9,480.5,209.6z"/>
		<path class="st1" d="M486.9,207.6v-4.2h-1c-0.2,0-0.3-0.1-0.3-0.3v-0.6c0-0.2,0.1-0.3,0.3-0.3h1l0.3-1.8c0-0.3,0.2-0.5,0.5-0.5
			h0.3c0.3,0,0.5,0.2,0.5,0.5v1.8h2.2c0.2,0,0.3,0.1,0.3,0.3v0.6c0,0.2-0.1,0.3-0.3,0.3h-2.2v4.3c0,0.9,0.4,1.2,0.9,1.2
			c0.5,0,0.9-0.3,0.9-0.9c0-0.1,0-0.2,0-0.3c0-0.2,0.1-0.4,0.3-0.4h0.7c0.2,0,0.3,0.1,0.4,0.3c0.1,0.3,0.1,0.6,0.1,0.6
			c0,1.2-0.9,2.1-2.4,2.1C488.1,210.3,486.9,209.7,486.9,207.6z"/>
		<path class="st1" d="M394.7,227.6v-4.2h-1c-0.2,0-0.3-0.1-0.3-0.3v-0.6c0-0.2,0.1-0.3,0.3-0.3h1l0.3-1.8c0-0.3,0.2-0.5,0.5-0.5
			h0.3c0.3,0,0.5,0.2,0.5,0.5v1.8h2.2c0.2,0,0.3,0.1,0.3,0.3v0.6c0,0.2-0.1,0.3-0.3,0.3h-2.2v4.3c0,0.9,0.4,1.2,0.9,1.2
			c0.5,0,0.9-0.3,0.9-0.9c0-0.1,0-0.2,0-0.3c0-0.2,0.1-0.4,0.3-0.4h0.7c0.2,0,0.3,0.1,0.4,0.3c0.1,0.3,0.1,0.6,0.1,0.6
			c0,1.2-0.9,2.1-2.4,2.1C396,230.3,394.7,229.7,394.7,227.6z"/>
		<path class="st1" d="M401.1,229.6v-10.4c0-0.4,0.2-0.6,0.6-0.6h0.5c0.4,0,0.6,0.2,0.6,0.6v4.5c0.4-1.1,1.4-1.7,2.7-1.7
			c1.8,0,3.1,1.2,3.1,3.7v4c0,0.4-0.2,0.6-0.6,0.6h-0.5c-0.4,0-0.6-0.2-0.6-0.6v-3.9c0-1.6-0.8-2.2-1.6-2.2c-0.8,0-2.5,0.6-2.5,3
			v3.2c0,0.4-0.2,0.6-0.6,0.6h-0.5C401.3,230.1,401.1,229.9,401.1,229.6z"/>
		<path class="st1" d="M410.1,226.1c0-2.3,1.8-4.2,4.3-4.2c2,0,3.9,1.2,4.1,3.8c0,0.4-0.2,0.6-0.6,0.6h-6.2c0,1.5,1.2,2.6,2.9,2.6
			c0.8,0,1.5-0.2,2.2-0.7c0.3-0.2,0.6-0.2,0.8,0.1l0.1,0.1c0.3,0.3,0.3,0.6-0.1,0.9c-0.9,0.8-2,1-3,1
			C411.9,230.3,410.1,228.4,410.1,226.1z M416.9,225.1c-0.4-1.4-1.5-1.7-2.4-1.7c-0.9,0-2.1,0.4-2.6,1.7H416.9z"/>
		<path class="st1" d="M420.3,229.6v-6.9c0-0.4,0.2-0.6,0.6-0.6h0.5c0.4,0,0.6,0.2,0.6,0.6v1.2c0.3-1.3,1.2-2,2.1-2l0.4,0
			c0.3,0,0.4,0.3,0.4,0.6v0.5c0,0.4-0.2,0.6-0.4,0.5c-0.1,0-0.3,0-0.4,0c-0.6,0-2,0.3-2,3.6v2.5c0,0.4-0.2,0.6-0.6,0.6h-0.5
			C420.5,230.1,420.3,229.9,420.3,229.6z"/>
		<path class="st1" d="M426.2,229.6v-6.9c0-0.4,0.2-0.6,0.6-0.6h0.5c0.4,0,0.6,0.2,0.6,0.6v1c0.3-1.2,1.4-1.7,2.5-1.7
			c0.8,0,1.9,0.3,2.5,1.6c0.7-1.4,1.8-1.6,2.7-1.6c1.9,0,3.1,1.2,3.1,3.7v4c0,0.4-0.2,0.6-0.6,0.6h-0.5c-0.4,0-0.6-0.2-0.6-0.6v-4
			c0-1.6-0.7-2.2-1.6-2.2c-0.7,0-2.1,0.5-2.2,2.8v3.4c0,0.4-0.2,0.6-0.6,0.6h-0.5c-0.4,0-0.6-0.2-0.6-0.6v-4c0-1.6-0.7-2.2-1.6-2.2
			c-0.8,0-2.2,0.6-2.2,3v3.2c0,0.4-0.2,0.6-0.6,0.6h-0.5C426.4,230.1,426.2,229.9,426.2,229.6z"/>
		<path class="st1" d="M440.4,226.1c0-2.3,1.9-4.2,4.2-4.2c2.4,0,4.3,1.9,4.3,4.2c0,2.3-1.9,4.2-4.3,4.2
			C442.3,230.3,440.4,228.5,440.4,226.1z M447.3,226.1c0-1.5-1.2-2.8-2.6-2.8c-1.4,0-2.6,1.2-2.6,2.8s1.2,2.7,2.6,2.7
			C446.1,228.9,447.3,227.6,447.3,226.1z"/>
		<path class="st1" d="M450.2,228.8c-0.2-0.4,0-0.6,0.4-0.7l0.3-0.1c0.3-0.1,0.5,0.1,0.7,0.3c0.3,0.4,0.9,0.7,1.5,0.7
			c0.8,0,1.3-0.4,1.3-1.1c0-0.5-0.4-0.8-1-1l-1.1-0.4c-1.2-0.4-2-1.1-2-2.2c0-1.4,1.1-2.4,2.7-2.4c1,0,1.9,0.3,2.4,1.3
			c0.2,0.4,0,0.7-0.4,0.7l-0.3,0.1c-0.3,0.1-0.5,0-0.8-0.3c-0.3-0.3-0.6-0.4-1-0.4c-0.7,0-1.2,0.4-1.2,1c0,0.5,0.5,0.8,0.9,0.9
			l1.2,0.4c1.5,0.5,2,1.4,2,2.3c0,1.5-1.3,2.4-2.9,2.4C451.9,230.3,450.7,229.8,450.2,228.8z"/>
		<path class="st1" d="M458.2,227.6v-4.2h-1c-0.2,0-0.3-0.1-0.3-0.3v-0.6c0-0.2,0.1-0.3,0.3-0.3h1l0.3-1.8c0-0.3,0.2-0.5,0.5-0.5
			h0.3c0.3,0,0.5,0.2,0.5,0.5v1.8h2.2c0.2,0,0.3,0.1,0.3,0.3v0.6c0,0.2-0.1,0.3-0.3,0.3h-2.2v4.3c0,0.9,0.4,1.2,0.9,1.2
			c0.5,0,0.9-0.3,0.9-0.9c0-0.1,0-0.2,0-0.3c0-0.2,0.1-0.4,0.3-0.4h0.7c0.2,0,0.3,0.1,0.4,0.3c0.1,0.3,0.1,0.6,0.1,0.6
			c0,1.2-0.9,2.1-2.4,2.1C459.5,230.3,458.2,229.7,458.2,227.6z"/>
		<path class="st1" d="M464,226.1c0-2.3,1.6-4.2,4-4.2c1.1,0,2.1,0.4,2.9,1.4v-0.7c0-0.4,0.2-0.6,0.6-0.6h0.5c0.4,0,0.6,0.2,0.6,0.6
			v6.9c0,0.4-0.2,0.6-0.6,0.6h-0.5c-0.4,0-0.6-0.2-0.6-0.6v-0.7c-0.8,1.1-1.8,1.4-2.9,1.4C465.6,230.3,464,228.4,464,226.1z
			 M470.9,226.1c0-1.6-1.1-2.8-2.7-2.8c-1.6,0-2.5,1.3-2.5,2.8c0,1.5,0.9,2.8,2.5,2.8C469.8,228.9,470.8,227.7,470.9,226.1z"/>
		<path class="st1" d="M475.3,227.6v-4.2h-1c-0.2,0-0.3-0.1-0.3-0.3v-0.6c0-0.2,0.1-0.3,0.3-0.3h1l0.3-1.8c0-0.3,0.2-0.5,0.5-0.5
			h0.3c0.3,0,0.5,0.2,0.5,0.5v1.8h2.2c0.2,0,0.3,0.1,0.3,0.3v0.6c0,0.2-0.1,0.3-0.3,0.3h-2.2v4.3c0,0.9,0.4,1.2,0.9,1.2
			c0.5,0,0.9-0.3,0.9-0.9c0-0.1,0-0.2,0-0.3c0-0.2,0.1-0.4,0.3-0.4h0.7c0.2,0,0.3,0.1,0.4,0.3c0.1,0.3,0.1,0.6,0.1,0.6
			c0,1.2-0.9,2.1-2.4,2.1C476.6,230.3,475.3,229.7,475.3,227.6z"/>
	</g>
</g>
<g>
	<path class="st1" d="M158.6,382.2c0,1.8-1.5,3-3.7,3h-4c-0.4,0-0.6-0.2-0.6-0.6v-10.1c0-0.4,0.2-0.6,0.6-0.6h3.5
		c2.1,0,3.7,1.1,3.7,2.9c0,1.2-0.7,2.2-2.1,2.6C157.7,379.6,158.6,380.8,158.6,382.2z M152,375.3v3.5h1.7c1.9,0,2.6-0.9,2.6-1.9
		c0-1.1-0.9-1.6-2-1.6H152z M156.9,382.1c0-1-0.8-1.9-2.8-1.9h-2v3.6h2.8C156,383.8,156.9,383.1,156.9,382.1z"/>
	<path class="st1" d="M160.4,381.7v-4c0-0.4,0.2-0.6,0.6-0.6h0.5c0.4,0,0.6,0.2,0.6,0.6v3.9c0,1.6,0.7,2.2,1.6,2.2
		c0.8,0,2.5-0.6,2.5-3v-3.2c0-0.4,0.2-0.6,0.6-0.6h0.5c0.4,0,0.6,0.2,0.6,0.6v6.9c0,0.4-0.2,0.6-0.6,0.6h-0.5
		c-0.4,0-0.6-0.2-0.6-0.6v-1c-0.4,1.1-1.4,1.7-2.7,1.7C161.7,385.3,160.4,384.2,160.4,381.7z"/>
	<path class="st1" d="M171.4,388.1l1.2-3.2l-3.1-7c-0.2-0.4,0-0.7,0.4-0.7h0.6c0.3,0,0.5,0.1,0.7,0.4l2.2,5.4l2-5.4
		c0.1-0.3,0.4-0.5,0.7-0.5h0.7c0.4,0,0.6,0.3,0.4,0.7l-4.5,10.5c-0.1,0.3-0.3,0.4-0.7,0.4h-0.4C171.4,388.7,171.3,388.5,171.4,388.1
		z"/>
	<path class="st1" d="M182.3,381.2c0-2.3,1.8-4.2,4.3-4.2c2,0,3.9,1.2,4.1,3.8c0,0.4-0.2,0.6-0.6,0.6h-6.2c0,1.5,1.2,2.6,2.9,2.6
		c0.8,0,1.5-0.2,2.2-0.7c0.3-0.2,0.6-0.2,0.8,0.1l0.1,0.1c0.3,0.3,0.3,0.6-0.1,0.9c-0.9,0.8-2,1-3,1
		C184,385.3,182.3,383.5,182.3,381.2z M189,380.1c-0.4-1.4-1.5-1.7-2.4-1.7c-0.9,0-2.1,0.4-2.6,1.7H189z"/>
	<path class="st1" d="M206.3,377.7v6.9c0,0.4-0.2,0.6-0.6,0.6h-0.5c-0.4,0-0.6-0.2-0.6-0.6v-6.2h-4.1v6.2c0,0.4-0.2,0.6-0.6,0.6
		h-0.5c-0.4,0-0.6-0.2-0.6-0.6v-6.2h-4.3v6.2c0,0.4-0.2,0.6-0.6,0.6h-0.5c-0.4,0-0.6-0.2-0.6-0.6v-6.2h-0.9c-0.2,0-0.3-0.1-0.3-0.3
		v-0.6c0-0.2,0.1-0.3,0.3-0.3h0.9v-0.6c0-2.6,1.8-3.2,3.3-3.2c0.6,0,1.3,0.2,1.8,0.6c0.3,0.2,0.3,0.4,0,0.7l-0.2,0.3
		c-0.3,0.2-0.5,0.2-0.8,0c-0.2-0.2-0.5-0.2-0.7-0.2c-0.9,0-1.7,0.3-1.7,1.8v0.6h4.3v-0.6c0-2.6,1.7-3.2,3.3-3.2c1,0,2,0.3,2.6,1.3
		c0.2,0.4,0,0.5-0.3,0.7l-0.2,0.1c-0.3,0.1-0.5,0.1-0.8-0.2c-0.3-0.3-0.8-0.4-1.2-0.4c-0.9,0-1.7,0.3-1.7,1.8v0.6h5.2
		C206,377.1,206.3,377.4,206.3,377.7z"/>
	<path class="st1" d="M208.1,381.2c0-2.4,1.6-4.3,4.5-4.3c0.6,0,1.5,0.1,2.4,0.7c0.3,0.2,0.4,0.5,0.2,0.8l-0.1,0.2
		c-0.2,0.3-0.5,0.3-0.8,0.2c-0.7-0.3-1.4-0.4-1.6-0.4c-1.7,0-2.9,1.1-2.9,2.7c0,1.6,1.2,2.8,2.9,2.8c0.2,0,0.9,0,1.6-0.4
		c0.4-0.2,0.6-0.1,0.8,0.2l0.1,0.2c0.2,0.3,0.1,0.7-0.4,0.9c-0.8,0.4-1.6,0.5-2.2,0.5C209.8,385.3,208.1,383.5,208.1,381.2z"/>
	<path class="st1" d="M217,374.6c0-0.6,0.5-1.1,1.1-1.1c0.7,0,1.1,0.5,1.1,1.1c0,0.6-0.5,1.1-1.1,1.1
		C217.4,375.7,217,375.2,217,374.6z M217.2,384.6v-6.9c0-0.4,0.2-0.6,0.6-0.6h0.5c0.4,0,0.6,0.2,0.6,0.6v6.9c0,0.4-0.2,0.6-0.6,0.6
		h-0.5C217.5,385.2,217.2,384.9,217.2,384.6z"/>
	<path class="st1" d="M220.8,381.2c0-2.3,1.8-4.2,4.3-4.2c2,0,3.9,1.2,4.1,3.8c0,0.4-0.2,0.6-0.6,0.6h-6.2c0,1.5,1.2,2.6,2.9,2.6
		c0.8,0,1.5-0.2,2.2-0.7c0.3-0.2,0.6-0.2,0.8,0.1l0.1,0.1c0.3,0.3,0.3,0.6-0.1,0.9c-0.9,0.8-2,1-3,1
		C222.5,385.3,220.8,383.5,220.8,381.2z M227.5,380.1c-0.4-1.4-1.5-1.7-2.4-1.7c-0.9,0-2.1,0.4-2.6,1.7H227.5z"/>
	<path class="st1" d="M230.9,384.6v-6.9c0-0.4,0.2-0.6,0.6-0.6h0.5c0.4,0,0.6,0.2,0.6,0.6v1c0.4-1.1,1.4-1.7,2.7-1.7
		c1.8,0,3.1,1.2,3.1,3.7v4c0,0.4-0.2,0.6-0.6,0.6h-0.5c-0.4,0-0.6-0.2-0.6-0.6v-3.9c0-1.6-0.8-2.2-1.6-2.2c-0.8,0-2.5,0.6-2.5,3v3.2
		c0,0.4-0.2,0.6-0.6,0.6h-0.5C231.1,385.2,230.9,384.9,230.9,384.6z"/>
	<path class="st1" d="M240.9,382.6v-4.2h-1c-0.2,0-0.3-0.1-0.3-0.3v-0.6c0-0.2,0.1-0.3,0.3-0.3h1l0.3-1.8c0-0.3,0.2-0.5,0.5-0.5h0.3
		c0.3,0,0.5,0.2,0.5,0.5v1.8h2.2c0.2,0,0.3,0.1,0.3,0.3v0.6c0,0.2-0.1,0.3-0.3,0.3h-2.2v4.3c0,0.9,0.4,1.2,0.9,1.2
		c0.5,0,0.9-0.3,0.9-0.9c0-0.1,0-0.2,0-0.3c0-0.2,0.1-0.4,0.3-0.4h0.7c0.2,0,0.3,0.1,0.4,0.3c0.1,0.3,0.1,0.6,0.1,0.6
		c0,1.2-0.9,2.1-2.4,2.1C242.2,385.3,240.9,384.7,240.9,382.6z"/>
	<path class="st1" d="M155.9,401.1c0-2.3,1.6-4.2,4-4.2c1.1,0,2.1,0.4,2.9,1.4v-0.7c0-0.4,0.2-0.6,0.6-0.6h0.5
		c0.4,0,0.6,0.2,0.6,0.6v6.9c0,0.4-0.2,0.6-0.6,0.6h-0.5c-0.4,0-0.6-0.2-0.6-0.6v-0.7c-0.8,1.1-1.8,1.4-2.9,1.4
		C157.5,405.3,155.9,403.4,155.9,401.1z M162.8,401.1c0-1.6-1.1-2.8-2.7-2.8c-1.6,0-2.5,1.3-2.5,2.8c0,1.5,0.9,2.8,2.5,2.8
		C161.7,403.9,162.8,402.7,162.8,401.1z"/>
	<path class="st1" d="M166.8,408.2v-10.5c0-0.4,0.2-0.6,0.6-0.6h0.5c0.4,0,0.6,0.2,0.6,0.6v0.7c0.8-1.1,1.8-1.4,2.9-1.4
		c2.4,0,4,1.9,4,4.2s-1.6,4.2-4,4.2c-1.1,0-2.1-0.4-2.9-1.4v4.3c0,0.4-0.2,0.6-0.6,0.6h-0.5C167.1,408.7,166.8,408.5,166.8,408.2z
		 M173.7,401.1c0-1.5-0.9-2.8-2.6-2.8c-1.6,0-2.7,1.2-2.7,2.8c0,1.6,1.1,2.8,2.7,2.8C172.7,403.9,173.7,402.6,173.7,401.1z"/>
	<path class="st1" d="M177.1,408.2v-10.5c0-0.4,0.2-0.6,0.6-0.6h0.5c0.4,0,0.6,0.2,0.6,0.6v0.7c0.8-1.1,1.8-1.4,2.9-1.4
		c2.4,0,4,1.9,4,4.2s-1.6,4.2-4,4.2c-1.1,0-2.1-0.4-2.9-1.4v4.3c0,0.4-0.2,0.6-0.6,0.6h-0.5C177.4,408.7,177.1,408.5,177.1,408.2z
		 M184,401.1c0-1.5-0.9-2.8-2.6-2.8c-1.6,0-2.7,1.2-2.7,2.8c0,1.6,1.1,2.8,2.7,2.8C183.1,403.9,184,402.6,184,401.1z"/>
	<path class="st1" d="M187.5,404.6v-10.4c0-0.4,0.2-0.6,0.6-0.6h0.5c0.4,0,0.6,0.2,0.6,0.6v10.4c0,0.4-0.2,0.6-0.6,0.6h-0.5
		C187.7,405.2,187.5,404.9,187.5,404.6z"/>
	<path class="st1" d="M191.4,394.6c0-0.6,0.5-1.1,1.1-1.1c0.7,0,1.1,0.5,1.1,1.1c0,0.6-0.5,1.1-1.1,1.1
		C191.9,395.7,191.4,395.2,191.4,394.6z M191.7,404.6v-6.9c0-0.4,0.2-0.6,0.6-0.6h0.5c0.4,0,0.6,0.2,0.6,0.6v6.9
		c0,0.4-0.2,0.6-0.6,0.6h-0.5C191.9,405.2,191.7,404.9,191.7,404.6z"/>
	<path class="st1" d="M195.2,401.1c0-2.3,1.6-4.2,4-4.2c1.1,0,2.1,0.4,2.9,1.4v-0.7c0-0.4,0.2-0.6,0.6-0.6h0.5
		c0.4,0,0.6,0.2,0.6,0.6v6.9c0,0.4-0.2,0.6-0.6,0.6h-0.5c-0.4,0-0.6-0.2-0.6-0.6v-0.7c-0.8,1.1-1.8,1.4-2.9,1.4
		C196.8,405.3,195.2,403.4,195.2,401.1z M202.1,401.1c0-1.6-1.1-2.8-2.7-2.8c-1.6,0-2.5,1.3-2.5,2.8c0,1.5,0.9,2.8,2.5,2.8
		C201,403.9,202.1,402.7,202.1,401.1z"/>
	<path class="st1" d="M206.1,404.6v-6.9c0-0.4,0.2-0.6,0.6-0.6h0.5c0.4,0,0.6,0.2,0.6,0.6v1c0.4-1.1,1.4-1.7,2.7-1.7
		c1.8,0,3.1,1.2,3.1,3.7v4c0,0.4-0.2,0.6-0.6,0.6h-0.5c-0.4,0-0.6-0.2-0.6-0.6v-3.9c0-1.6-0.8-2.2-1.6-2.2c-0.8,0-2.5,0.6-2.5,3v3.2
		c0,0.4-0.2,0.6-0.6,0.6h-0.5C206.3,405.2,206.1,404.9,206.1,404.6z"/>
	<path class="st1" d="M215.2,401.2c0-2.4,1.6-4.3,4.5-4.3c0.6,0,1.5,0.1,2.4,0.7c0.3,0.2,0.4,0.5,0.2,0.8l-0.1,0.2
		c-0.2,0.3-0.5,0.3-0.8,0.2c-0.7-0.3-1.4-0.4-1.6-0.4c-1.7,0-2.9,1.1-2.9,2.7c0,1.6,1.2,2.8,2.9,2.8c0.2,0,0.9,0,1.6-0.4
		c0.4-0.2,0.6-0.1,0.8,0.2l0.1,0.2c0.2,0.3,0.1,0.7-0.4,0.9c-0.8,0.4-1.6,0.5-2.2,0.5C216.9,405.3,215.2,403.5,215.2,401.2z"/>
	<path class="st1" d="M223.5,401.2c0-2.3,1.8-4.2,4.3-4.2c2,0,3.9,1.2,4.1,3.8c0,0.4-0.2,0.6-0.6,0.6h-6.2c0,1.5,1.2,2.6,2.9,2.6
		c0.8,0,1.5-0.2,2.2-0.7c0.3-0.2,0.6-0.2,0.8,0.1l0.1,0.1c0.3,0.3,0.3,0.6-0.1,0.9c-0.9,0.8-2,1-3,1
		C225.2,405.3,223.5,403.5,223.5,401.2z M230.3,400.1c-0.4-1.4-1.5-1.7-2.4-1.7c-0.9,0-2.1,0.4-2.6,1.7H230.3z"/>
	<path class="st1" d="M233.1,403.8c-0.2-0.4,0-0.6,0.4-0.7l0.3-0.1c0.3-0.1,0.5,0.1,0.7,0.3c0.3,0.4,0.9,0.7,1.5,0.7
		c0.8,0,1.3-0.4,1.3-1.1c0-0.5-0.4-0.8-1-1l-1.1-0.4c-1.2-0.4-2-1.1-2-2.2c0-1.4,1.1-2.4,2.7-2.4c1,0,1.9,0.3,2.4,1.3
		c0.2,0.4,0,0.7-0.4,0.7l-0.3,0.1c-0.3,0.1-0.5,0-0.8-0.3c-0.3-0.3-0.6-0.4-1-0.4c-0.7,0-1.2,0.4-1.2,1c0,0.5,0.5,0.8,0.9,0.9
		l1.2,0.4c1.5,0.5,2,1.4,2,2.3c0,1.5-1.3,2.4-2.9,2.4C234.8,405.3,233.7,404.8,233.1,403.8z"/>
</g>
<g>
	<path class="st1" d="M327.9,383.6v-10.1c0-0.4,0.2-0.6,0.6-0.6h0.5c0.4,0,0.6,0.2,0.6,0.6v10.1c0,0.4-0.2,0.6-0.6,0.6h-0.5
		C328.1,384.2,327.9,383.9,327.9,383.6z"/>
	<path class="st1" d="M332.3,383.6v-6.9c0-0.4,0.2-0.6,0.6-0.6h0.5c0.4,0,0.6,0.2,0.6,0.6v1c0.4-1.1,1.4-1.7,2.7-1.7
		c1.8,0,3.1,1.2,3.1,3.7v4c0,0.4-0.2,0.6-0.6,0.6h-0.5c-0.4,0-0.6-0.2-0.6-0.6v-3.9c0-1.6-0.8-2.2-1.6-2.2c-0.8,0-2.5,0.6-2.5,3v3.2
		c0,0.4-0.2,0.6-0.6,0.6h-0.5C332.5,384.2,332.3,383.9,332.3,383.6z"/>
	<path class="st1" d="M341.4,382.8c-0.2-0.4,0-0.6,0.4-0.7l0.3-0.1c0.3-0.1,0.5,0.1,0.7,0.3c0.3,0.4,0.9,0.7,1.5,0.7
		c0.8,0,1.3-0.4,1.3-1.1c0-0.5-0.4-0.8-1-1l-1.1-0.4c-1.2-0.4-2-1.1-2-2.2c0-1.4,1.1-2.4,2.7-2.4c1,0,1.9,0.3,2.4,1.3
		c0.2,0.4,0,0.7-0.4,0.7l-0.3,0.1c-0.3,0.1-0.5,0-0.8-0.3c-0.3-0.3-0.6-0.4-1-0.4c-0.7,0-1.2,0.4-1.2,1c0,0.5,0.5,0.8,0.9,0.9
		l1.2,0.4c1.5,0.5,2,1.4,2,2.3c0,1.5-1.3,2.4-2.9,2.4C343.1,384.3,342,383.8,341.4,382.8z"/>
	<path class="st1" d="M349.5,381.6v-4.2h-1c-0.2,0-0.3-0.1-0.3-0.3v-0.6c0-0.2,0.1-0.3,0.3-0.3h1l0.3-1.8c0-0.3,0.2-0.5,0.5-0.5h0.3
		c0.3,0,0.5,0.2,0.5,0.5v1.8h2.2c0.2,0,0.3,0.1,0.3,0.3v0.6c0,0.2-0.1,0.3-0.3,0.3h-2.2v4.3c0,0.9,0.4,1.2,0.9,1.2
		c0.5,0,0.9-0.3,0.9-0.9c0-0.1,0-0.2,0-0.3c0-0.2,0.1-0.4,0.3-0.4h0.7c0.2,0,0.3,0.1,0.4,0.3c0.1,0.3,0.1,0.6,0.1,0.6
		c0,1.2-0.9,2.1-2.4,2.1C350.7,384.3,349.5,383.7,349.5,381.6z"/>
	<path class="st1" d="M355.3,380.1c0-2.3,1.6-4.2,4-4.2c1.1,0,2.1,0.4,2.9,1.4v-0.7c0-0.4,0.2-0.6,0.6-0.6h0.5
		c0.4,0,0.6,0.2,0.6,0.6v6.9c0,0.4-0.2,0.6-0.6,0.6h-0.5c-0.4,0-0.6-0.2-0.6-0.6v-0.7c-0.8,1.1-1.8,1.4-2.9,1.4
		C356.8,384.3,355.3,382.4,355.3,380.1z M362.1,380.1c0-1.6-1.1-2.8-2.7-2.8c-1.6,0-2.5,1.3-2.5,2.8c0,1.5,0.9,2.8,2.5,2.8
		C361,382.9,362.1,381.7,362.1,380.1z"/>
	<path class="st1" d="M366.2,383.6v-10.4c0-0.4,0.2-0.6,0.6-0.6h0.5c0.4,0,0.6,0.2,0.6,0.6v10.4c0,0.4-0.2,0.6-0.6,0.6h-0.5
		C366.4,384.2,366.2,383.9,366.2,383.6z"/>
	<path class="st1" d="M370.4,383.6v-10.4c0-0.4,0.2-0.6,0.6-0.6h0.5c0.4,0,0.6,0.2,0.6,0.6v10.4c0,0.4-0.2,0.6-0.6,0.6H371
		C370.6,384.2,370.4,383.9,370.4,383.6z"/>
	<path class="st1" d="M378.1,380.1c0-2.3,1.6-4.2,4-4.2c1.1,0,2.1,0.4,2.9,1.4v-0.7c0-0.4,0.2-0.6,0.6-0.6h0.5
		c0.4,0,0.6,0.2,0.6,0.6v6.9c0,0.4-0.2,0.6-0.6,0.6h-0.5c-0.4,0-0.6-0.2-0.6-0.6v-0.7c-0.8,1.1-1.8,1.4-2.9,1.4
		C379.7,384.3,378.1,382.4,378.1,380.1z M385,380.1c0-1.6-1.1-2.8-2.7-2.8c-1.6,0-2.5,1.3-2.5,2.8c0,1.5,0.9,2.8,2.5,2.8
		C383.9,382.9,384.9,381.7,385,380.1z"/>
	<path class="st1" d="M318.7,403.6v-6.9c0-0.4,0.2-0.6,0.6-0.6h0.5c0.4,0,0.6,0.2,0.6,0.6v1c0.4-1.1,1.4-1.7,2.7-1.7
		c1.8,0,3.1,1.2,3.1,3.7v4c0,0.4-0.2,0.6-0.6,0.6H325c-0.4,0-0.6-0.2-0.6-0.6v-3.9c0-1.6-0.8-2.2-1.6-2.2c-0.8,0-2.5,0.6-2.5,3v3.2
		c0,0.4-0.2,0.6-0.6,0.6h-0.5C318.9,404.2,318.7,403.9,318.7,403.6z"/>
	<path class="st1" d="M327.7,400.2c0-2.3,1.8-4.2,4.3-4.2c2,0,3.9,1.2,4.1,3.8c0,0.4-0.2,0.6-0.6,0.6h-6.2c0,1.5,1.2,2.6,2.9,2.6
		c0.8,0,1.5-0.2,2.2-0.7c0.3-0.2,0.6-0.2,0.8,0.1l0.1,0.1c0.3,0.3,0.3,0.6-0.1,0.9c-0.9,0.8-2,1-3,1
		C329.5,404.3,327.7,402.5,327.7,400.2z M334.5,399.1c-0.4-1.4-1.5-1.7-2.4-1.7c-0.9,0-2.1,0.4-2.6,1.7H334.5z"/>
	<path class="st1" d="M339.5,403.7l-2.5-6.9c-0.1-0.4,0-0.7,0.5-0.7h0.5c0.3,0,0.6,0.1,0.7,0.5l1.9,5.3l1.6-5.1
		c0.1-0.3,0.3-0.5,0.6-0.5h0.4c0.3,0,0.5,0.2,0.6,0.5l1.6,5.1l1.8-5.3c0.1-0.3,0.3-0.5,0.7-0.5h0.5c0.4,0,0.6,0.2,0.5,0.7l-2.5,6.9
		c-0.1,0.3-0.3,0.5-0.7,0.5h-0.5c-0.3,0-0.5-0.2-0.7-0.5l-1.6-5l-1.6,5c-0.1,0.3-0.3,0.5-0.7,0.5h-0.5
		C339.8,404.2,339.6,404,339.5,403.7z"/>
	<path class="st1" d="M356.2,402.9v0.7c0,0.4-0.2,0.6-0.6,0.6h-0.5c-0.4,0-0.6-0.2-0.6-0.6v-10.4c0-0.4,0.2-0.6,0.6-0.6h0.5
		c0.4,0,0.6,0.2,0.6,0.6v4.2c0.8-1.1,1.8-1.4,2.9-1.4c2.4,0,4,1.9,4,4.2s-1.6,4.2-4,4.2C358,404.3,356.9,404,356.2,402.9z
		 M361.4,400.1c0-1.5-0.9-2.8-2.6-2.8c-1.6,0-2.7,1.2-2.7,2.8c0,1.6,1.1,2.8,2.7,2.8C360.4,402.9,361.4,401.6,361.4,400.1z"/>
	<path class="st1" d="M364.3,400.1c0-2.3,1.9-4.2,4.2-4.2c2.4,0,4.3,1.9,4.3,4.2c0,2.3-1.9,4.2-4.3,4.2
		C366.1,404.3,364.3,402.5,364.3,400.1z M371.1,400.2c0-1.5-1.2-2.8-2.6-2.8c-1.4,0-2.6,1.2-2.6,2.8s1.2,2.7,2.6,2.7
		C369.9,402.9,371.1,401.7,371.1,400.2z"/>
	<path class="st1" d="M374.3,393.6c0-0.6,0.5-1.1,1.1-1.1c0.7,0,1.1,0.5,1.1,1.1c0,0.6-0.5,1.1-1.1,1.1
		C374.8,394.7,374.3,394.2,374.3,393.6z M374.6,403.6v-6.9c0-0.4,0.2-0.6,0.6-0.6h0.5c0.4,0,0.6,0.2,0.6,0.6v6.9
		c0,0.4-0.2,0.6-0.6,0.6h-0.5C374.8,404.2,374.6,403.9,374.6,403.6z"/>
	<path class="st1" d="M378.8,403.6v-10.4c0-0.4,0.2-0.6,0.6-0.6h0.5c0.4,0,0.6,0.2,0.6,0.6v10.4c0,0.4-0.2,0.6-0.6,0.6h-0.5
		C379,404.2,378.8,403.9,378.8,403.6z"/>
	<path class="st1" d="M382.3,400.2c0-2.3,1.8-4.2,4.3-4.2c2,0,3.9,1.2,4.1,3.8c0,0.4-0.2,0.6-0.6,0.6h-6.2c0,1.5,1.2,2.6,2.9,2.6
		c0.8,0,1.5-0.2,2.2-0.7c0.3-0.2,0.6-0.2,0.8,0.1l0.1,0.1c0.3,0.3,0.3,0.6-0.1,0.9c-0.9,0.8-2,1-3,1
		C384,404.3,382.3,402.5,382.3,400.2z M389,399.1c-0.4-1.4-1.5-1.7-2.4-1.7c-0.9,0-2.1,0.4-2.6,1.7H389z"/>
	<path class="st1" d="M392.4,403.6v-6.9c0-0.4,0.2-0.6,0.6-0.6h0.5c0.4,0,0.6,0.2,0.6,0.6v1.2c0.3-1.3,1.2-2,2.1-2l0.4,0
		c0.3,0,0.4,0.3,0.4,0.6v0.5c0,0.4-0.2,0.6-0.4,0.5c-0.1,0-0.3,0-0.4,0c-0.6,0-2,0.3-2,3.6v2.5c0,0.4-0.2,0.6-0.6,0.6H393
		C392.6,404.2,392.4,403.9,392.4,403.6z"/>
</g>
<g>
	<g>
		<path class="st1" d="M102.1,63.8l1.1-11.9c0-0.4,0.3-0.6,0.7-0.6h1c0.4,0,0.6,0.2,0.8,0.5l4.1,9.9l4.1-9.9
			c0.2-0.4,0.4-0.5,0.8-0.5h1c0.4,0,0.7,0.2,0.7,0.6l1.1,11.9c0,0.5-0.2,0.7-0.7,0.7h-0.6c-0.4,0-0.7-0.2-0.7-0.6l-0.8-9.6l-4,9.5
			c-0.2,0.4-0.4,0.5-0.8,0.5h-0.3c-0.4,0-0.6-0.2-0.8-0.5l-4-9.5l-0.8,9.6c0,0.4-0.3,0.6-0.7,0.6h-0.6
			C102.4,64.5,102.1,64.3,102.1,63.8z"/>
		<path class="st1" d="M119.5,59.7c0-2.7,2.2-5,5-5c2.8,0,5.1,2.2,5.1,5c0,2.8-2.3,5-5.1,5C121.8,64.7,119.5,62.5,119.5,59.7z
			 M127.7,59.8c0-1.8-1.4-3.3-3.1-3.3c-1.7,0-3.1,1.5-3.1,3.3c0,1.8,1.4,3.2,3.1,3.2C126.3,63,127.7,61.6,127.7,59.8z"/>
		<path class="st1" d="M131.1,62.9c-0.2-0.4,0-0.7,0.5-0.9l0.4-0.1c0.4-0.1,0.6,0.1,0.9,0.4c0.4,0.5,1,0.8,1.8,0.8
			c0.9,0,1.6-0.5,1.6-1.3c0-0.6-0.5-0.9-1.2-1.2l-1.3-0.4c-1.5-0.4-2.4-1.3-2.4-2.6c0-1.6,1.3-2.8,3.2-2.8c1.2,0,2.3,0.4,2.9,1.6
			c0.2,0.4,0,0.8-0.4,0.9l-0.4,0.1c-0.4,0.1-0.6-0.1-0.9-0.4c-0.3-0.4-0.7-0.5-1.2-0.5c-0.8,0-1.4,0.5-1.4,1.2
			c0,0.6,0.6,0.9,1.1,1.1l1.4,0.5c1.8,0.6,2.3,1.7,2.3,2.7c0,1.8-1.6,2.9-3.5,2.9C133.1,64.7,131.8,64.1,131.1,62.9z"/>
		<path class="st1" d="M140.7,61.5v-5h-1.2c-0.2,0-0.4-0.2-0.4-0.4v-0.7c0-0.2,0.1-0.4,0.4-0.4h1.2l0.3-2.2c0.1-0.4,0.3-0.6,0.6-0.6
			h0.4c0.4,0,0.6,0.2,0.6,0.6V55h2.6c0.2,0,0.4,0.1,0.4,0.4v0.7c0,0.2-0.1,0.4-0.4,0.4h-2.6v5.1c0,1,0.5,1.4,1.1,1.4
			c0.6,0,1.1-0.3,1.1-1c0-0.1,0-0.2,0-0.4c0-0.3,0.1-0.4,0.3-0.4h0.9c0.2,0,0.4,0.1,0.4,0.3c0.1,0.3,0.1,0.7,0.1,0.7
			c0,1.4-1,2.5-2.8,2.5C142.2,64.7,140.7,63.9,140.7,61.5z"/>
		<path class="st1" d="M152.5,59.8c0-2.8,2.2-5,5.1-5c2.4,0,4.6,1.4,4.8,4.5c0.1,0.5-0.2,0.7-0.7,0.7h-7.4c-0.1,1.8,1.4,3.1,3.5,3.1
			c0.9,0,1.8-0.2,2.6-0.8c0.4-0.2,0.7-0.2,1,0.1l0.1,0.2c0.3,0.3,0.3,0.7-0.1,1.1c-1.1,0.9-2.4,1.2-3.6,1.2
			C154.6,64.7,152.5,62.5,152.5,59.8z M160.5,58.5c-0.5-1.7-1.8-2.1-2.9-2.1c-1.1,0-2.5,0.4-3.1,2.1H160.5z"/>
		<path class="st1" d="M165.1,63.8v-7.3H164c-0.2,0-0.4-0.2-0.4-0.4v-0.7c0-0.2,0.1-0.4,0.4-0.4h1.1v-0.7c0-3.1,1.7-3.7,3.2-3.7
			c1.3,0,2.1,0.5,2.6,1.3c0.2,0.4,0.1,0.6-0.3,0.8l-0.5,0.2c-0.3,0.2-0.4,0.1-0.7-0.2c-0.3-0.3-0.6-0.4-0.9-0.4
			c-0.8,0-1.4,0.4-1.4,1.8V55h5.1v-0.7c0-3.1,1.7-3.7,3.2-3.7c1.8,0,2.8,1,2.8,2.3c0,0.4-0.1,0.5-0.5,0.5l-0.5,0.1
			c-0.3,0-0.5,0-0.6-0.4c-0.2-0.7-0.6-0.8-1-0.8c-0.8,0-1.4,0.4-1.4,1.8V55h2.1c0.2,0,0.4,0.2,0.4,0.4v0.7c0,0.2-0.1,0.4-0.4,0.4
			h-2.1v7.3c0,0.4-0.2,0.7-0.7,0.7h-0.6c-0.4,0-0.7-0.2-0.7-0.7v-7.3h-5.1v7.3c0,0.4-0.2,0.7-0.7,0.7h-0.6
			C165.3,64.5,165.1,64.3,165.1,63.8z"/>
		<path class="st1" d="M177.5,59.8c0-2.8,2.2-5,5.1-5c2.4,0,4.6,1.4,4.8,4.5c0.1,0.5-0.2,0.7-0.7,0.7h-7.4c-0.1,1.8,1.4,3.1,3.5,3.1
			c0.9,0,1.8-0.2,2.6-0.8c0.4-0.2,0.7-0.2,1,0.1l0.1,0.2c0.3,0.3,0.3,0.7-0.1,1.1c-1.1,0.9-2.4,1.2-3.6,1.2
			C179.6,64.7,177.5,62.5,177.5,59.8z M185.6,58.5c-0.5-1.7-1.8-2.1-2.9-2.1c-1.1,0-2.5,0.4-3.1,2.1H185.6z"/>
		<path class="st1" d="M188.9,59.9c0-2.8,1.9-5.1,5.4-5.1c0.8,0,1.8,0.2,2.9,0.8c0.4,0.2,0.5,0.6,0.2,1l-0.2,0.2
			c-0.3,0.4-0.6,0.4-1,0.2c-0.8-0.4-1.6-0.4-1.8-0.4c-2,0-3.5,1.3-3.5,3.2c0,1.9,1.5,3.3,3.5,3.3c0.2,0,1,0,1.8-0.4
			c0.4-0.2,0.7-0.2,1,0.2l0.1,0.2c0.3,0.4,0.1,0.8-0.5,1.1c-1,0.5-1.9,0.6-2.6,0.6C190.9,64.7,188.9,62.6,188.9,59.9z"/>
		<path class="st1" d="M200.1,61.5v-5h-1.2c-0.2,0-0.4-0.2-0.4-0.4v-0.7c0-0.2,0.1-0.4,0.4-0.4h1.2l0.3-2.2c0.1-0.4,0.3-0.6,0.6-0.6
			h0.4c0.4,0,0.6,0.2,0.6,0.6V55h2.6c0.2,0,0.4,0.1,0.4,0.4v0.7c0,0.2-0.1,0.4-0.4,0.4h-2.6v5.1c0,1,0.5,1.4,1.1,1.4
			c0.6,0,1.1-0.3,1.1-1c0-0.1,0-0.2,0-0.4c0-0.3,0.1-0.4,0.3-0.4h0.9c0.2,0,0.4,0.1,0.4,0.3c0.1,0.3,0.1,0.7,0.1,0.7
			c0,1.4-1,2.5-2.8,2.5C201.6,64.7,200.1,63.9,200.1,61.5z"/>
		<path class="st1" d="M207.4,52c0-0.7,0.6-1.3,1.3-1.3c0.8,0,1.3,0.6,1.3,1.3c0,0.7-0.6,1.3-1.3,1.3
			C207.9,53.3,207.4,52.7,207.4,52z M207.7,63.8v-8.1c0-0.4,0.3-0.7,0.7-0.7h0.6c0.4,0,0.7,0.2,0.7,0.7v8.1c0,0.4-0.2,0.7-0.7,0.7
			h-0.6C208,64.5,207.7,64.3,207.7,63.8z"/>
		<path class="st1" d="M215.1,64l-3.2-8.2c-0.2-0.5,0-0.8,0.5-0.8h0.6c0.4,0,0.6,0.2,0.8,0.6l2.5,6.8l2.5-6.8
			c0.2-0.4,0.4-0.6,0.8-0.6h0.6c0.5,0,0.7,0.3,0.5,0.8l-3.2,8.2c-0.2,0.4-0.4,0.6-0.8,0.6h-1C215.5,64.5,215.2,64.3,215.1,64z"/>
		<path class="st1" d="M221.9,59.8c0-2.8,2.2-5,5.1-5c2.4,0,4.6,1.4,4.8,4.5c0.1,0.5-0.2,0.7-0.7,0.7h-7.4c-0.1,1.8,1.4,3.1,3.5,3.1
			c0.9,0,1.8-0.2,2.6-0.8c0.4-0.2,0.7-0.2,1,0.1l0.1,0.2c0.3,0.3,0.3,0.7-0.1,1.1c-1.1,0.9-2.4,1.2-3.6,1.2
			C224,64.7,221.9,62.5,221.9,59.8z M230,58.5c-0.5-1.7-1.8-2.1-2.9-2.1c-1.1,0-2.5,0.4-3.1,2.1H230z"/>
		<path class="st1" d="M238.3,59.8c0-2.8,2.2-5,5.1-5c2.4,0,4.6,1.4,4.8,4.5c0.1,0.5-0.2,0.7-0.7,0.7h-7.4c-0.1,1.8,1.4,3.1,3.5,3.1
			c0.9,0,1.8-0.2,2.6-0.8c0.4-0.2,0.7-0.2,1,0.1l0.1,0.2c0.3,0.3,0.3,0.7-0.1,1.1c-1.1,0.9-2.4,1.2-3.6,1.2
			C240.3,64.7,238.3,62.5,238.3,59.8z M246.3,58.5c-0.5-1.7-1.8-2.1-2.9-2.1c-1.1,0-2.5,0.4-3.1,2.1H246.3z"/>
		<path class="st1" d="M250.3,63.8v-8.1c0-0.4,0.3-0.7,0.7-0.7h0.6c0.4,0,0.7,0.2,0.7,0.7v1.2c0.4-1.3,1.6-2.1,3.2-2.1
			c2.1,0,3.6,1.4,3.6,4.4v4.7c0,0.4-0.3,0.7-0.7,0.7h-0.6c-0.4,0-0.7-0.2-0.7-0.7v-4.7c0-2-0.9-2.7-1.9-2.7c-1,0-3,0.7-3,3.6v3.8
			c0,0.4-0.2,0.7-0.7,0.7H251C250.6,64.5,250.3,64.3,250.3,63.8z"/>
		<path class="st1" d="M261.1,59.8c0-2.8,2.2-5,5.1-5c2.4,0,4.6,1.4,4.8,4.5c0.1,0.5-0.2,0.7-0.7,0.7H263c-0.1,1.8,1.4,3.1,3.5,3.1
			c0.9,0,1.8-0.2,2.6-0.8c0.4-0.2,0.7-0.2,1,0.1l0.1,0.2c0.3,0.3,0.3,0.7-0.1,1.1c-1.1,0.9-2.4,1.2-3.6,1.2
			C263.1,64.7,261.1,62.5,261.1,59.8z M269.1,58.5c-0.5-1.7-1.8-2.1-2.9-2.1c-1.1,0-2.5,0.4-3.1,2.1H269.1z"/>
		<path class="st1" d="M273.1,63.8v-8.1c0-0.4,0.3-0.7,0.7-0.7h0.6c0.4,0,0.7,0.2,0.7,0.7v1.4c0.3-1.5,1.4-2.3,2.5-2.3l0.4,0
			c0.4,0.1,0.5,0.4,0.5,0.8v0.6c0,0.5-0.2,0.7-0.5,0.6c-0.2,0-0.3-0.1-0.5-0.1c-0.7,0-2.4,0.3-2.4,4.2v2.9c0,0.4-0.2,0.7-0.7,0.7
			h-0.6C273.4,64.5,273.1,64.3,273.1,63.8z"/>
		<path class="st1" d="M280.8,68c-0.3-0.2-0.4-0.6-0.2-0.9l0.2-0.3c0.2-0.4,0.5-0.5,0.9-0.2c0.8,0.5,1.7,0.7,2.7,0.7
			c1.8,0,3.1-1,3.1-3.1V63c-0.9,1.3-2.1,1.7-3.4,1.7c-2.8,0-4.7-2.2-4.7-5c0-2.7,1.9-5,4.7-5c1.3,0,2.5,0.4,3.4,1.7v-0.8
			c0-0.4,0.3-0.7,0.7-0.7h0.6c0.4,0,0.7,0.2,0.7,0.7v8.7c0,3.2-2.4,4.6-5,4.6C282.7,69,281.6,68.6,280.8,68z M287.5,59.7
			c0-1.9-1.3-3.3-3.2-3.3c-1.9,0-3,1.5-3,3.3c0,1.8,1.1,3.3,3,3.3C286.2,63,287.4,61.6,287.5,59.7z"/>
		<path class="st1" d="M293.7,68l1.5-3.8l-3.6-8.4c-0.2-0.5,0-0.8,0.5-0.8h0.8c0.4,0,0.6,0.2,0.8,0.5l2.6,6.4l2.4-6.4
			c0.1-0.4,0.4-0.6,0.8-0.6h0.8c0.5,0,0.7,0.3,0.5,0.8l-5.3,12.4c-0.2,0.4-0.4,0.5-0.8,0.5h-0.5C293.7,68.8,293.5,68.4,293.7,68z"/>
		<path class="st1" d="M306.6,62.9c-0.2-0.4,0-0.7,0.5-0.9l0.4-0.1c0.4-0.1,0.6,0.1,0.9,0.4c0.4,0.5,1,0.8,1.8,0.8
			c0.9,0,1.6-0.5,1.6-1.3c0-0.6-0.5-0.9-1.2-1.2l-1.3-0.4c-1.5-0.4-2.4-1.3-2.4-2.6c0-1.6,1.3-2.8,3.2-2.8c1.2,0,2.3,0.4,2.9,1.6
			c0.2,0.4,0,0.8-0.4,0.9l-0.4,0.1c-0.4,0.1-0.6-0.1-0.9-0.4c-0.3-0.4-0.7-0.5-1.2-0.5c-0.8,0-1.4,0.5-1.4,1.2
			c0,0.6,0.6,0.9,1.1,1.1l1.4,0.5c1.8,0.6,2.3,1.7,2.3,2.7c0,1.8-1.6,2.9-3.5,2.9C308.6,64.7,307.3,64.1,306.6,62.9z"/>
		<path class="st1" d="M315,59.7c0-2.7,1.9-5,4.7-5c1.3,0,2.5,0.4,3.4,1.7v-0.8c0-0.4,0.3-0.7,0.7-0.7h0.6c0.4,0,0.7,0.2,0.7,0.7
			v8.1c0,0.4-0.2,0.7-0.7,0.7h-0.6c-0.4,0-0.7-0.2-0.7-0.7V63c-0.9,1.3-2.1,1.7-3.4,1.7C316.9,64.7,315,62.5,315,59.7z M323.2,59.7
			c0-1.9-1.3-3.3-3.2-3.3c-1.9,0-3,1.5-3,3.3c0,1.8,1.1,3.3,3,3.3C321.9,63,323.1,61.6,323.2,59.7z"/>
		<path class="st1" d="M330.4,64l-3.2-8.2c-0.2-0.5,0-0.8,0.5-0.8h0.6c0.4,0,0.6,0.2,0.8,0.6l2.5,6.8l2.5-6.8
			c0.2-0.4,0.4-0.6,0.8-0.6h0.6c0.5,0,0.7,0.3,0.5,0.8L333,64c-0.2,0.4-0.4,0.6-0.8,0.6h-1C330.8,64.5,330.6,64.3,330.4,64z"/>
		<path class="st1" d="M338.1,52c0-0.7,0.6-1.3,1.3-1.3c0.8,0,1.3,0.6,1.3,1.3c0,0.7-0.6,1.3-1.3,1.3
			C338.6,53.3,338.1,52.7,338.1,52z M338.4,63.8v-8.1c0-0.4,0.3-0.7,0.7-0.7h0.6c0.4,0,0.7,0.2,0.7,0.7v8.1c0,0.4-0.2,0.7-0.7,0.7
			h-0.6C338.7,64.5,338.4,64.3,338.4,63.8z"/>
		<path class="st1" d="M343.3,63.8v-8.1c0-0.4,0.3-0.7,0.7-0.7h0.6c0.4,0,0.7,0.2,0.7,0.7v1.2c0.4-1.3,1.6-2.1,3.2-2.1
			c2.1,0,3.6,1.4,3.6,4.4v4.7c0,0.4-0.3,0.7-0.7,0.7h-0.6c-0.4,0-0.7-0.2-0.7-0.7v-4.7c0-2-0.9-2.7-1.9-2.7c-1,0-3,0.7-3,3.6v3.8
			c0,0.4-0.2,0.7-0.7,0.7H344C343.6,64.5,343.3,64.3,343.3,63.8z"/>
		<path class="st1" d="M355.6,68c-0.3-0.2-0.4-0.6-0.2-0.9l0.2-0.3c0.2-0.4,0.5-0.5,0.9-0.2c0.8,0.5,1.7,0.7,2.7,0.7
			c1.8,0,3.1-1,3.1-3.1V63c-0.9,1.3-2.1,1.7-3.4,1.7c-2.8,0-4.7-2.2-4.7-5c0-2.7,1.9-5,4.7-5c1.3,0,2.5,0.4,3.4,1.7v-0.8
			c0-0.4,0.3-0.7,0.7-0.7h0.6c0.4,0,0.7,0.2,0.7,0.7v8.7c0,3.2-2.4,4.6-5,4.6C357.5,69,356.4,68.6,355.6,68z M362.3,59.7
			c0-1.9-1.3-3.3-3.2-3.3c-1.9,0-3,1.5-3,3.3c0,1.8,1.1,3.3,3,3.3C361,63,362.2,61.6,362.3,59.7z"/>
		<path class="st1" d="M371.3,59.7c0-2.7,1.9-5,4.7-5c1.3,0,2.5,0.4,3.4,1.7v-0.8c0-0.4,0.3-0.7,0.7-0.7h0.6c0.4,0,0.7,0.2,0.7,0.7
			v8.1c0,0.4-0.2,0.7-0.7,0.7h-0.6c-0.4,0-0.7-0.2-0.7-0.7V63c-0.9,1.3-2.1,1.7-3.4,1.7C373.2,64.7,371.3,62.5,371.3,59.7z
			 M379.5,59.7c0-1.9-1.3-3.3-3.2-3.3c-1.9,0-3,1.5-3,3.3c0,1.8,1.1,3.3,3,3.3C378.2,63,379.5,61.6,379.5,59.7z"/>
		<path class="st1" d="M383.6,59.9c0-2.8,1.9-5.1,5.4-5.1c0.8,0,1.8,0.2,2.9,0.8c0.4,0.2,0.5,0.6,0.2,1l-0.2,0.2
			c-0.3,0.4-0.6,0.4-1,0.2c-0.8-0.4-1.6-0.4-1.8-0.4c-2,0-3.5,1.3-3.5,3.2c0,1.9,1.5,3.3,3.5,3.3c0.2,0,1,0,1.8-0.4
			c0.4-0.2,0.7-0.2,1,0.2L392,63c0.3,0.4,0.1,0.8-0.5,1.1c-1,0.5-1.9,0.6-2.6,0.6C385.6,64.7,383.6,62.6,383.6,59.9z"/>
		<path class="st1" d="M394.8,61.5v-5h-1.2c-0.2,0-0.4-0.2-0.4-0.4v-0.7c0-0.2,0.1-0.4,0.4-0.4h1.2l0.3-2.2c0.1-0.4,0.3-0.6,0.6-0.6
			h0.4c0.4,0,0.6,0.2,0.6,0.6V55h2.6c0.2,0,0.4,0.1,0.4,0.4v0.7c0,0.2-0.1,0.4-0.4,0.4h-2.6v5.1c0,1,0.5,1.4,1.1,1.4
			c0.6,0,1.1-0.3,1.1-1c0-0.1,0-0.2,0-0.4c0-0.3,0.1-0.4,0.3-0.4h0.9c0.2,0,0.4,0.1,0.4,0.3c0.1,0.3,0.1,0.7,0.1,0.7
			c0,1.4-1,2.5-2.8,2.5C396.3,64.7,394.8,63.9,394.8,61.5z"/>
		<path class="st1" d="M402.1,52c0-0.7,0.6-1.3,1.3-1.3c0.8,0,1.3,0.6,1.3,1.3c0,0.7-0.6,1.3-1.3,1.3
			C402.6,53.3,402.1,52.7,402.1,52z M402.4,63.8v-8.1c0-0.4,0.3-0.7,0.7-0.7h0.6c0.4,0,0.7,0.2,0.7,0.7v8.1c0,0.4-0.2,0.7-0.7,0.7
			h-0.6C402.7,64.5,402.4,64.3,402.4,63.8z"/>
		<path class="st1" d="M409.8,64l-3.2-8.2c-0.2-0.5,0-0.8,0.5-0.8h0.6c0.4,0,0.6,0.2,0.8,0.6l2.5,6.8l2.5-6.8
			c0.2-0.4,0.4-0.6,0.8-0.6h0.6c0.5,0,0.7,0.3,0.5,0.8l-3.2,8.2c-0.2,0.4-0.4,0.6-0.8,0.6h-1C410.2,64.5,409.9,64.3,409.8,64z"/>
		<path class="st1" d="M417.4,52c0-0.7,0.6-1.3,1.3-1.3c0.8,0,1.3,0.6,1.3,1.3c0,0.7-0.6,1.3-1.3,1.3C418,53.3,417.4,52.7,417.4,52z
			 M417.8,63.8v-8.1c0-0.4,0.3-0.7,0.7-0.7h0.6c0.4,0,0.7,0.2,0.7,0.7v8.1c0,0.4-0.2,0.7-0.7,0.7h-0.6
			C418.1,64.5,417.8,64.3,417.8,63.8z"/>
		<path class="st1" d="M423.1,61.5v-5H422c-0.2,0-0.4-0.2-0.4-0.4v-0.7c0-0.2,0.1-0.4,0.4-0.4h1.2l0.3-2.2c0.1-0.4,0.3-0.6,0.6-0.6
			h0.4c0.4,0,0.6,0.2,0.6,0.6V55h2.6c0.2,0,0.4,0.1,0.4,0.4v0.7c0,0.2-0.1,0.4-0.4,0.4h-2.6v5.1c0,1,0.5,1.4,1.1,1.4
			c0.6,0,1.1-0.3,1.1-1c0-0.1,0-0.2,0-0.4c0-0.3,0.1-0.4,0.3-0.4h0.9c0.2,0,0.4,0.1,0.4,0.3c0.1,0.3,0.1,0.7,0.1,0.7
			c0,1.4-1,2.5-2.8,2.5C424.6,64.7,423.1,63.9,423.1,61.5z"/>
		<path class="st1" d="M430.4,52c0-0.7,0.6-1.3,1.3-1.3c0.8,0,1.3,0.6,1.3,1.3c0,0.7-0.6,1.3-1.3,1.3C431,53.3,430.4,52.7,430.4,52z
			 M430.8,63.8v-8.1c0-0.4,0.3-0.7,0.7-0.7h0.6c0.4,0,0.7,0.2,0.7,0.7v8.1c0,0.4-0.2,0.7-0.7,0.7h-0.6
			C431,64.5,430.8,64.3,430.8,63.8z"/>
		<path class="st1" d="M434.9,59.8c0-2.8,2.2-5,5.1-5c2.4,0,4.6,1.4,4.8,4.5c0.1,0.5-0.2,0.7-0.7,0.7h-7.4c-0.1,1.8,1.4,3.1,3.5,3.1
			c0.9,0,1.8-0.2,2.6-0.8c0.4-0.2,0.7-0.2,1,0.1l0.1,0.2c0.3,0.3,0.3,0.7-0.1,1.1c-1.1,0.9-2.4,1.2-3.6,1.2
			C437,64.7,434.9,62.5,434.9,59.8z M443,58.5c-0.5-1.7-1.8-2.1-2.9-2.1c-1.1,0-2.5,0.4-3.1,2.1H443z"/>
		<path class="st1" d="M446.4,62.9c-0.2-0.4,0-0.7,0.5-0.9l0.4-0.1c0.4-0.1,0.6,0.1,0.9,0.4c0.4,0.5,1,0.8,1.8,0.8
			c0.9,0,1.6-0.5,1.6-1.3c0-0.6-0.5-0.9-1.2-1.2l-1.3-0.4c-1.5-0.4-2.4-1.3-2.4-2.6c0-1.6,1.3-2.8,3.2-2.8c1.2,0,2.3,0.4,2.9,1.6
			c0.2,0.4,0,0.8-0.4,0.9l-0.4,0.1c-0.4,0.1-0.6-0.1-0.9-0.4c-0.3-0.4-0.7-0.5-1.2-0.5c-0.8,0-1.4,0.5-1.4,1.2
			c0,0.6,0.6,0.9,1.1,1.1l1.4,0.5c1.8,0.6,2.3,1.7,2.3,2.7c0,1.8-1.6,2.9-3.5,2.9C448.4,64.7,447,64.1,446.4,62.9z"/>
	</g>
</g>
</svg>
